<svg xmlns="http://www.w3.org/2000/svg" xmlns:xlink="http://www.w3.org/1999/xlink" viewBox="0 0 80.558 88.63">
  <defs>
    <clipPath id="clip-path">
      <path id="Caminho_23700" data-name="Caminho 23700" d="M0-37.267H80.558V-125.9H0Z" transform="translate(0 125.897)" fill="none"/>
    </clipPath>
  </defs>
  <g id="Grupo_29227" data-name="Grupo 29227" transform="translate(0 125.897)">
    <g id="Grupo_29116" data-name="Grupo 29116" transform="translate(0 -125.897)" clip-path="url(#clip-path)">
      <g id="Grupo_29104" data-name="Grupo 29104" transform="translate(0 80.838)">
        <path id="Caminho_23688" data-name="Caminho 23688" d="M-3.17,0C-4.5,2.536-5.832,5.072-7.06,7.654h-.952c-.815-2.582-1.8-5.095-2.7-7.654h.8c.734,2.387,1.629,4.717,2.421,7.08C-6.325,4.717-5.075,2.4-3.985,0Z" transform="translate(10.709)" fill="#2b2e34"/>
      </g>
      <g id="Grupo_29105" data-name="Grupo 29105" transform="translate(7.102 82.698)">
        <path id="Caminho_23689" data-name="Caminho 23689" d="M-1.7-2.436c.1-.976.126-2.375.206-3.488l-.023-.023c-.792.861-3.535.643-3.535,2.169,0,.792.757,1.021,1.411,1.021A3.818,3.818,0,0,0-2.341-3l-.126.551a5.411,5.411,0,0,1-1.205.137c-.6,0-2.065-.023-2.065-1.434,0-2.433,4.246-1.492,4.246-3.133,0-.757-.872-.907-1.457-.907a4.929,4.929,0,0,0-2.031.425l.08-.585a7.55,7.55,0,0,1,1.848-.287C-1.48-8.231-.8-7.8-.8-6.8c0,.964-.172,2.524-.172,4.36Z" transform="translate(5.738 8.231)" fill="#2b2e34"/>
      </g>
      <g id="Grupo_29106" data-name="Grupo 29106" transform="translate(13.596 80.839)">
        <path id="Caminho_23690" data-name="Caminho 23690" d="M0-3.218c.138-2.364.287-4.751.321-7.654h.735C.884-8.325.815-5.766.734-3.218Z" transform="translate(0 10.872)" fill="#2b2e34"/>
      </g>
      <g id="Grupo_29107" data-name="Grupo 29107" transform="translate(16.028 82.697)">
        <path id="Caminho_23691" data-name="Caminho 23691" d="M-.3-1.124C-.311-1-.323-.849-.323-.677A2.09,2.09,0,0,0,1.915,1.618,5.339,5.339,0,0,0,3.6,1.274l-.1.608a6.523,6.523,0,0,1-1.87.241c-1.7,0-2.639-1.09-2.639-2.846,0-1.7.93-3.075,2.743-3.075A2.111,2.111,0,0,1,4.084-1.492v.367Zm3.7-.448c0-1.079-.528-1.778-1.573-1.778A2.008,2.008,0,0,0-.254-1.572Z" transform="translate(1.011 3.798)" fill="#2b2e34"/>
      </g>
      <g id="Grupo_29108" data-name="Grupo 29108" transform="translate(25.609 80.838)">
        <path id="Caminho_23692" data-name="Caminho 23692" d="M-1.949-2.673l-.023.023a2.259,2.259,0,0,1-2.249,1.4,2.346,2.346,0,0,1-2.364-2.57c0-1.572.826-3.351,3.614-3.351a7.6,7.6,0,0,1,1.136.127V-9.031H-1.1c-.126,2.571-.241,5.3-.241,7.654H-2.03ZM-2.982-6.667A2.669,2.669,0,0,0-5.9-3.786,1.835,1.835,0,0,0-4.061-1.755a1.943,1.943,0,0,0,1.71-1.01c.367-.6.436-1.113.47-3.741a4.467,4.467,0,0,0-1.1-.161" transform="translate(6.585 9.031)" fill="#2b2e34"/>
      </g>
      <g id="Grupo_29109" data-name="Grupo 29109" transform="translate(32.528 82.697)">
        <path id="Caminho_23693" data-name="Caminho 23693" d="M-2.36-1.158c0,1.411-.631,3.167-2.88,3.167A2.577,2.577,0,0,1-7.971-.8a2.793,2.793,0,0,1,2.926-3.11A2.515,2.515,0,0,1-2.36-1.158m-4.923.379A2.015,2.015,0,0,0-5.24,1.5C-3.679,1.5-3.048.311-3.048-1.1s-.585-2.306-2.077-2.306c-1.4,0-2.158,1-2.158,2.628" transform="translate(7.971 3.912)" fill="#2b2e34"/>
      </g>
      <g id="Grupo_29110" data-name="Grupo 29110" transform="translate(42.729 80.7)">
        <path id="Caminho_23694" data-name="Caminho 23694" d="M-2.055-.652a4.71,4.71,0,0,0-1.6-.333c-.723,0-1.25.356-1.25.861,0,1.181,2.96,1.973,2.96,3.787,0,.849-.6,2.065-2.72,2.065a9.777,9.777,0,0,1-2.157-.3l-.126-1.411a4.93,4.93,0,0,0,2.019.493c.539,0,1.251-.206,1.251-.86,0-1.205-2.96-2.02-2.96-3.9,0-1.342,1.3-1.951,2.651-1.951a8.792,8.792,0,0,1,1.813.207Z" transform="translate(6.943 2.201)" fill="#2b2e34"/>
      </g>
      <g id="Grupo_29111" data-name="Grupo 29111" transform="translate(48.959 82.651)">
        <path id="Caminho_23695" data-name="Caminho 23695" d="M-.671-1.293v.184A1.592,1.592,0,0,0,1.085.554,6.373,6.373,0,0,0,2.99.187l-.207,1.2A8.42,8.42,0,0,1,.924,1.61c-2.949,0-3.19-2-3.19-2.788a2.917,2.917,0,0,1,3.1-3.19c1.549,0,2.673.781,2.673,2.41a3.71,3.71,0,0,1-.068.666ZM1.98-2.062c0-.884-.31-1.354-1.182-1.354A1.449,1.449,0,0,0-.625-2.062Z" transform="translate(2.266 4.369)" fill="#2b2e34"/>
      </g>
      <g id="Grupo_29112" data-name="Grupo 29112" transform="translate(55.786 82.651)">
        <path id="Caminho_23696" data-name="Caminho 23696" d="M-.719-.381H-.7A1.721,1.721,0,0,1,.842-1.288a2.32,2.32,0,0,1,.493.058L1.381.112A1.9,1.9,0,0,0,.762,0,1.451,1.451,0,0,0-.7,1.34a16.232,16.232,0,0,0-.138,2.5v.712H-2.428c.1-1.618.218-3.156.218-5.7H-.684Z" transform="translate(2.428 1.288)" fill="#2b2e34"/>
      </g>
      <g id="Grupo_29113" data-name="Grupo 29113" transform="translate(59.985 82.651)">
        <path id="Caminho_23697" data-name="Caminho 23697" d="M-.67-1.293v.184A1.592,1.592,0,0,0,1.085.554,6.373,6.373,0,0,0,2.99.187l-.207,1.2A8.42,8.42,0,0,1,.925,1.61c-2.949,0-3.19-2-3.19-2.788a2.917,2.917,0,0,1,3.1-3.19c1.549,0,2.673.781,2.673,2.41a3.71,3.71,0,0,1-.068.666ZM1.98-2.062c0-.884-.31-1.354-1.182-1.354A1.449,1.449,0,0,0-.625-2.062Z" transform="translate(2.265 4.369)" fill="#2b2e34"/>
      </g>
      <g id="Grupo_29114" data-name="Grupo 29114" transform="translate(66.812 82.652)">
        <path id="Caminho_23698" data-name="Caminho 23698" d="M-.781-.449h.023A2.353,2.353,0,0,1,1.433-1.516c1.216,0,2.134.47,2.134,1.813,0,.7-.161,2.307-.161,4.028h-1.7A25,25,0,0,0,1.973,1,1.067,1.067,0,0,0,.756-.231,1.6,1.6,0,0,0-.8,1.261,23.141,23.141,0,0,0-1,4.325H-2.64c.161-1.733.275-3.477.309-5.7H-.724Z" transform="translate(2.64 1.516)" fill="#2b2e34"/>
      </g>
      <g id="Grupo_29115" data-name="Grupo 29115" transform="translate(74.259 82.651)">
        <path id="Caminho_23699" data-name="Caminho 23699" d="M-2.649-1.216A2.968,2.968,0,0,1-5.884,1.87,2.774,2.774,0,0,1-8.948-.975,2.994,2.994,0,0,1-5.7-4.108,2.762,2.762,0,0,1-2.649-1.216m-4.7.275A1.507,1.507,0,0,0-5.862.746c1.147,0,1.618-.976,1.618-2,0-.952-.425-1.733-1.469-1.733-1.193,0-1.641.976-1.641,2.043" transform="translate(8.948 4.108)" fill="#2b2e34"/>
      </g>
    </g>
    <path id="Caminho_23701" data-name="Caminho 23701" d="M65.535-74.633H65.9v-.073h-.363Z" transform="translate(-19.399 -15.153)" fill="#08843b"/>
    <g id="Grupo_29124" data-name="Grupo 29124" transform="translate(0 -125.897)" clip-path="url(#clip-path)">
      <g id="Grupo_29117" data-name="Grupo 29117" transform="translate(42.649 42.432)">
        <path id="Caminho_23702" data-name="Caminho 23702" d="M-.122-.061-.34-.207c-.045.146.01.063-.073.146V.011h.291Z" transform="translate(0.413 0.207)" fill="#08843b"/>
      </g>
      <g id="Grupo_29118" data-name="Grupo 29118" transform="translate(42.649 42.722)">
        <path id="Caminho_23703" data-name="Caminho 23703" d="M-.092-.031C-.164-.055-.237-.081-.31-.1V.041h.218Z" transform="translate(0.31 0.104)" fill="#08843b"/>
      </g>
      <g id="Grupo_29119" data-name="Grupo 29119" transform="translate(42.794 41.269)">
        <path id="Caminho_23704" data-name="Caminho 23704" d="M-.061-.031V-.1H-.206c.082.082,0,.031.145.073" transform="translate(0.206 0.104)" fill="#08843b"/>
      </g>
      <g id="Grupo_29120" data-name="Grupo 29120" transform="translate(43.956 39.671)">
        <path id="Caminho_23705" data-name="Caminho 23705" d="M0,0V.144H.073C.03,0,.082.082,0,0" fill="#08843b"/>
      </g>
      <g id="Grupo_29121" data-name="Grupo 29121" transform="translate(46.281 35.675)">
        <path id="Caminho_23706" data-name="Caminho 23706" d="M0,0V.145H.073C.029,0,.083.083,0,0" fill="#08843b"/>
      </g>
      <g id="Grupo_29122" data-name="Grupo 29122" transform="translate(43.739 40.689)">
        <path id="Caminho_23707" data-name="Caminho 23707" d="M-.091-.244H.127C.083-.32-.08-.331-.018-.389H.127c-.05-.168-.059-.049,0-.218H-.018V-.824H-.091V-.68c-.146.044-.062-.009-.146.073H-.309v.073h.145c.025.1.049.194.073.29" transform="translate(0.309 0.824)" fill="#08843b"/>
      </g>
      <g id="Grupo_29123" data-name="Grupo 29123" transform="translate(44.029 41.414)">
        <path id="Caminho_23708" data-name="Caminho 23708" d="M-.061-.092C-.019-.233-.09-.26-.134-.31v.073H-.206l.072.073v.073Z" transform="translate(0.206 0.31)" fill="#08843b"/>
      </g>
    </g>
    <path id="Caminho_23710" data-name="Caminho 23710" d="M56.143-58.49h.072v-.218h-.072Z" transform="translate(-16.619 -19.889)" fill="#08843b"/>
    <path id="Caminho_23711" data-name="Caminho 23711" d="M60.169-65.436h.072v-.29h-.072Z" transform="translate(-17.811 -17.811)" fill="#08843b"/>
    <g id="Grupo_29148" data-name="Grupo 29148" transform="translate(0 -125.897)" clip-path="url(#clip-path)">
      <g id="Grupo_29125" data-name="Grupo 29125" transform="translate(39.015 44.394)">
        <path id="Caminho_23712" data-name="Caminho 23712" d="M0,0V.145H.073C.028,0,.082.082,0,0" fill="#08843b"/>
      </g>
      <g id="Grupo_29126" data-name="Grupo 29126" transform="translate(39.741 47.591)">
        <path id="Caminho_23713" data-name="Caminho 23713" d="M0-.061H.218V-.133L0-.206Z" transform="translate(0 0.206)" fill="#08843b"/>
      </g>
      <g id="Grupo_29127" data-name="Grupo 29127" transform="translate(47.08 33.64)">
        <path id="Caminho_23714" data-name="Caminho 23714" d="M-.122-.03A.721.721,0,0,0-.413-.1V.043h.291Z" transform="translate(0.413 0.103)" fill="#08843b"/>
      </g>
      <g id="Grupo_29128" data-name="Grupo 29128" transform="translate(41.267 43.957)">
        <path id="Caminho_23715" data-name="Caminho 23715" d="M-.061-.031V-.1H-.206c.082.082,0,.031.145.073" transform="translate(0.206 0.104)" fill="#08843b"/>
      </g>
      <g id="Grupo_29129" data-name="Grupo 29129" transform="translate(39.451 46.574)">
        <path id="Caminho_23716" data-name="Caminho 23716" d="M-.152-.213a1.163,1.163,0,0,0,0-.508H-.37a.7.7,0,0,1-.073.29H-.515c.013.1.067.121.073.29a.717.717,0,0,1,.29-.073" transform="translate(0.515 0.721)" fill="#08843b"/>
      </g>
      <g id="Grupo_29130" data-name="Grupo 29130" transform="translate(40.031 46.864)">
        <path id="Caminho_23717" data-name="Caminho 23717" d="M-.061,0H-.207V.218h.073C-.11.146-.085.073-.061,0" transform="translate(0.207)" fill="#08843b"/>
      </g>
      <g id="Grupo_29131" data-name="Grupo 29131" transform="translate(38.621 45.794)">
        <path id="Caminho_23718" data-name="Caminho 23718" d="M-.227-.022-.445.05V-.022L-.766-.076v.2h.03A.149.149,0,0,1-.766.2v.856C-.6,1-.61.948-.372.922V.7h.146V.922h.073V.849l.145.073C-.034.7-.058.486-.082.268L-.3.2-.227.123Z" transform="translate(0.766 0.076)" fill="#08843b"/>
      </g>
      <g id="Grupo_29132" data-name="Grupo 29132" transform="translate(77.451 12.57)">
        <path id="Caminho_23719" data-name="Caminho 23719" d="M-.061,0H-.206c.024.121.049.242.073.363h.073Z" transform="translate(0.206)" fill="#08843b"/>
      </g>
      <g id="Grupo_29133" data-name="Grupo 29133" transform="translate(77.669 16.856)">
        <path id="Caminho_23720" data-name="Caminho 23720" d="M-.031-.092H-.1s.011.282.073.145V-.019H.042C.1.063.031-.008.114.053V-.164H.187A.557.557,0,0,0-.031-.31Z" transform="translate(0.104 0.31)" fill="#08843b"/>
      </g>
      <g id="Grupo_29134" data-name="Grupo 29134" transform="translate(75.562 6.83)">
        <path id="Caminho_23721" data-name="Caminho 23721" d="M-.061-.03V-.1H-.207c.082.081,0,.032.146.073" transform="translate(0.207 0.103)" fill="#08843b"/>
      </g>
      <g id="Grupo_29135" data-name="Grupo 29135" transform="translate(77.451 13.006)">
        <path id="Caminho_23722" data-name="Caminho 23722" d="M-.061-.03V-.1H-.206c.082.082,0,.032.145.073" transform="translate(0.206 0.103)" fill="#08843b"/>
      </g>
      <g id="Grupo_29136" data-name="Grupo 29136" transform="translate(47.734 32.333)">
        <path id="Caminho_23723" data-name="Caminho 23723" d="M-.031-.061V-.134H.042V-.207H-.1c.044.146-.01.063.073.146" transform="translate(0.104 0.207)" fill="#08843b"/>
      </g>
      <g id="Grupo_29137" data-name="Grupo 29137" transform="translate(69.024 9.082)">
        <path id="Caminho_23724" data-name="Caminho 23724" d="M-.061-.03V-.1H-.206c.082.082,0,.031.145.073" transform="translate(0.206 0.103)" fill="#08843b"/>
      </g>
      <g id="Grupo_29138" data-name="Grupo 29138" transform="translate(78.324 17.293)">
        <path id="Caminho_23725" data-name="Caminho 23725" d="M0,0V.145C.144.1.063.155.145.073H.073V0Z" fill="#08843b"/>
      </g>
      <g id="Grupo_29139" data-name="Grupo 29139" transform="translate(77.306 14.531)">
        <path id="Caminho_23726" data-name="Caminho 23726" d="M-.184-.275A1.448,1.448,0,0,1-.257-.856L-.62-.929l.073.291c.145.043.063-.011.145.072h.073A.524.524,0,0,0-.4-.275Z" transform="translate(0.62 0.929)" fill="#08843b"/>
      </g>
      <g id="Grupo_29140" data-name="Grupo 29140" transform="translate(78.178 16.383)">
        <path id="Caminho_23727" data-name="Caminho 23727" d="M-.031-.107V-.179H.187s0-.183-.041-.183c-.009,0-.02.011-.032.037v.073H-.1s.006.281.073.144" transform="translate(0.104 0.362)" fill="#08843b"/>
      </g>
      <g id="Grupo_29141" data-name="Grupo 29141" transform="translate(66.699 11.916)">
        <path id="Caminho_23728" data-name="Caminho 23728" d="M-.061-.03V.188H.085V-.03H.013V-.1H-.2c.082.082,0,.032.144.073" transform="translate(0.205 0.103)" fill="#08843b"/>
      </g>
      <g id="Grupo_29142" data-name="Grupo 29142" transform="translate(52.166 24.195)">
        <path id="Caminho_23729" data-name="Caminho 23729" d="M-.061-.061H.011V-.134c-.146-.044-.062.009-.146-.073H-.207V.011c.146-.044.063.01.146-.073" transform="translate(0.207 0.207)" fill="#08843b"/>
      </g>
      <g id="Grupo_29143" data-name="Grupo 29143" transform="translate(48.606 30.661)">
        <path id="Caminho_23730" data-name="Caminho 23730" d="M-.031,0V.073H-.1V.146H.042C0,0,.052.082-.031,0" transform="translate(0.104)" fill="#08843b"/>
      </g>
      <g id="Grupo_29144" data-name="Grupo 29144" transform="translate(56.308 20.926)">
        <path id="Caminho_23731" data-name="Caminho 23731" d="M-.061-.03V-.1H-.207c.082.081,0,.03.146.072" transform="translate(0.207 0.102)" fill="#08843b"/>
      </g>
      <g id="Grupo_29145" data-name="Grupo 29145" transform="translate(60.377 16.057)">
        <path id="Caminho_23732" data-name="Caminho 23732" d="M-.306-.122H-.669c-.044-.145.011-.062-.073-.145-.044-.146.009-.062-.074-.146a.717.717,0,0,0-.073.291h-.145V.023L-.306-.05Z" transform="translate(1.033 0.413)" fill="#08843b"/>
      </g>
      <g id="Grupo_29146" data-name="Grupo 29146" transform="translate(66.408 12.715)">
        <path id="Caminho_23733" data-name="Caminho 23733" d="M0,0V.145H.073C.029,0,.082.082,0,0" fill="#08843b"/>
      </g>
      <g id="Grupo_29147" data-name="Grupo 29147" transform="translate(65.608 11.844)">
        <path id="Caminho_23734" data-name="Caminho 23734" d="M-.153-.152h.073c-.025-.12-.05-.242-.073-.363H-.517a.678.678,0,0,1,.073.29c.214-.063.142-.146.291.073" transform="translate(0.517 0.515)" fill="#08843b"/>
      </g>
    </g>
    <g id="Grupo_29149" data-name="Grupo 29149" transform="translate(77.669 -108.967)">
      <path id="Caminho_23736" data-name="Caminho 23736" d="M-.153,0V.363H-.226V.435H-.517V.508h.291V.654h.218V.508H.065V.435H-.008V.144H.138V0Z" transform="translate(0.517)" fill="#08843b"/>
    </g>
    <g id="Grupo_29154" data-name="Grupo 29154" transform="translate(0 -125.897)" clip-path="url(#clip-path)">
      <g id="Grupo_29150" data-name="Grupo 29150" transform="translate(75.998 41.343)">
        <path id="Caminho_23737" data-name="Caminho 23737" d="M-.061-.122C-.036-.2-.013-.268.012-.34H-.061V-.412H-.133l-.073.29Z" transform="translate(0.206 0.412)" fill="#08843b"/>
      </g>
      <g id="Grupo_29151" data-name="Grupo 29151" transform="translate(64.372 63.284)">
        <path id="Caminho_23738" data-name="Caminho 23738" d="M0-.154c.044.144-.009.061.074.144V.064C.146.038.218.015.292-.01.266-.154.244-.3.218-.446H.146V-.519H.074v.365Z" transform="translate(0 0.519)" fill="#08843b"/>
      </g>
      <g id="Grupo_29152" data-name="Grupo 29152" transform="translate(44.32 40.906)">
        <path id="Caminho_23739" data-name="Caminho 23739" d="M0-.03H.073C.048.018.024.066,0,.115H.073V.188H.145V-.1C0-.059.082-.114,0-.03" transform="translate(0 0.103)" fill="#08843b"/>
      </g>
      <g id="Grupo_29153" data-name="Grupo 29153" transform="translate(59.505 16.856)">
        <path id="Caminho_23740" data-name="Caminho 23740" d="M-.03,0A2.488,2.488,0,0,1-.1.509H.116V.436H.189A.525.525,0,0,1,.116.146H.333V.073L-.03,0" transform="translate(0.102)" fill="#08843b"/>
      </g>
    </g>
    <path id="Caminho_23742" data-name="Caminho 23742" d="M111.67-75.654h.072v-.29h-.072Z" transform="translate(-33.056 -14.787)" fill="#08843b"/>
    <g id="Grupo_29170" data-name="Grupo 29170" transform="translate(0 -125.897)" clip-path="url(#clip-path)">
      <g id="Grupo_29155" data-name="Grupo 29155" transform="translate(74.763 45.628)">
        <path id="Caminho_23743" data-name="Caminho 23743" d="M0,0V.146H.073C.03,0,.083.083,0,0" fill="#08843b"/>
      </g>
      <g id="Grupo_29156" data-name="Grupo 29156" transform="translate(76.944 38.218)">
        <path id="Caminho_23744" data-name="Caminho 23744" d="M0,0V.146H.073C.028,0,.082.083,0,0" fill="#08843b"/>
      </g>
      <g id="Grupo_29157" data-name="Grupo 29157" transform="translate(77.088 40.689)">
        <path id="Caminho_23745" data-name="Caminho 23745" d="M0,0V.144H.073C.029,0,.082.082,0,0" fill="#08843b"/>
      </g>
      <g id="Grupo_29158" data-name="Grupo 29158" transform="translate(38.621 0)">
        <path id="Caminho_23746" data-name="Caminho 23746" d="M-17.183-12.587v-.145h-.29v.291a4.2,4.2,0,0,0-.8-.146v-.145a.907.907,0,0,1-.363-.073c.026-.245,0-.234.218-.291.044-.144-.011-.063.073-.145v-.073h.217V-13.6h.145v-.073h-.145c-.023-.073-.047-.145-.072-.218a1.124,1.124,0,0,1-.436-.073v-.8l.436-.072v.072h.072V-15.2h.145v-.145l.365-.073v-.145h-.365v-.218h.146l-.146-.291c0-.051.01-.044.029-.037s.039.015.045-.035v-.074h-.074v-.29h.074c-.024-.073-.049-.146-.074-.218-.362.02-.232-.046-.217.29-.039.03-.044.03-.044.03a.213.213,0,0,1-.028.044l-.509-.073c-.024-.145-.047-.291-.073-.436h-.073c.024-.048.049-.1.073-.145h-.073v-.291h.073c.055-.2.018-.165.218-.218V-17.6h.072v.072a.174.174,0,0,0,.051,0c.065-.006.157-.011.1.074,0,0-.147,0-.073.073.06.056.094.053.12.049s.054-.009.1.168c.172.047.136.02.218.145h.363v-.073h-.218v-.363a.9.9,0,0,0,.363-.073l-.073-.436h-.145v-.218h-.073v.218h-.218v-.072h-.074c.026-.073.05-.146.074-.218l-.436-.073c-.024-.073-.048-.145-.073-.218-.144-.044-.062.011-.144-.073-.044-.048-.109-.007-.073-.146h.073c-.047-.088-.132-.1-.218-.145.028-.234.065-.212.145-.363l.581-.073v.291h.072v.072h.074v-.145h.291V-19.2h-.073v-.29a3.762,3.762,0,0,1-.945-.073c-.024-.121-.047-.242-.073-.363h.073c.024-.122.049-.243.073-.364h-.073v-.073l.509-.073v-.291h-.073c.025-.121.049-.241.073-.363a1.155,1.155,0,0,1-.436-.072c.049-.218.1-.436.144-.654h.146v.144h.218q.037-.108.072-.218h.145a.886.886,0,0,0-.071-.363,2.475,2.475,0,0,0-.581-.073v-.291h-.073l.073-.145a.087.087,0,0,0-.089-.041c-.043,0-.079.006-.13-.177h.218v-.072a.739.739,0,0,0,.145-.582c0-.02-.1-.021-.073-.146h.073v-.218h-.145c.163-.122-.109-.4-.146-.581h-.363a.719.719,0,0,0,.072-.291h-.145v.218h-.073v-.218c-.181-.074-.085-.218-.073-.581h-.363V-26.1h.144v-.218l-.291-.073c-.031-.253-.183-.887-.073-1.017v-.073h-.218a1.084,1.084,0,0,0,.073-.435.931.931,0,0,0,.364-.074.723.723,0,0,1,.072.292h.145c.025-.122.049-.243.073-.364h-.146v-.146c.253-.041.135-.073.363,0a1.415,1.415,0,0,0,0-.581h.145v-.073h-.072c.025-.073.048-.145.072-.218h-.072c-.062-.082.01-.012-.073-.073v.145a1.055,1.055,0,0,1-.436-.145c-.063-.082.01-.012-.072-.073v-.363H-19.8v.073h-.073v-.073h-.073c.025-.1.048-.193.073-.291.439-.013.207-.075.509.073v-.073h.073c-.025-.073-.048-.145-.073-.218l.29-.072v-.146h.146c-.043-.145.01-.062-.073-.145v-.073h-.218v-.144c-.145-.044-.063.009-.145-.073h-.073v-.436h-.073v-.145h-.073c0,.086-.134.12-.218.073v-.073c-.2-.056-.165-.018-.218-.218l-.508-.073V-31.7c-.4-.318.267-.242-.217-.509.035-.275.073-.225.217-.363v-.073h.146c.015-.017-.108-.173-.073-.291,0,0,.047-.006.073-.145h.145a.553.553,0,0,0-.145-.436h-.073v-.144h-.073c-.1-.106-.034-.1-.217-.145v-.291c-.162-.018-.2,0-.291-.073v-.073h-.146v-.073h-.072v-.218h-.074V-34.6a.287.287,0,0,0,.146-.145h.219c.023-.073.048-.146.073-.218h-.073v-.073h.145v-.072l.218-.073v-.29c-.073.023-.145.049-.218.073v-.073c-.225-.07-.24-.094-.364.073h-.072c.024-.146.049-.291.072-.436H-21.4v.146h-.072c-.026-.073-.049-.146-.073-.218l.073-.073h-.146v-.29l.146-.073v-.145h.144c-.062-.023-.1-.317-.144-.364h-.073v-.073l-.218.073a.865.865,0,0,1,.218-.436c.047-.025.1-.048.145-.072v-.218h.072v-.146H-21.4c0,.077-.063.119-.145.073v-.073c-.048-.054-.1,0-.073-.146h.073v-.073h-.073c-.062-.081.01-.011-.073-.072v.144a1.065,1.065,0,0,1-.436-.144c-.062-.083.009-.013-.073-.073v-.363h-.073v.073h-.073v-.073h-.073c.024-.1.048-.194.073-.291.438-.014.208-.075.508.073v-.073h.073c-.025-.073-.049-.145-.073-.218l.291-.073v-.146h.145c-.044-.145.01-.062-.072-.145V-39.4h-.219v-.145c-.145-.044-.063.01-.145-.073h-.073v-.436h-.073V-40.2h-.072c0,.086-.134.12-.218.073V-40.2c-.2-.055-.165-.017-.218-.217h-.291v-.073h-.072l.072-.364h.219a2.225,2.225,0,0,0,0-.8h-.073v-.073h-.218v-.145c-.145-.044-.063.01-.145-.073h-.074v-.435h-.071v-.146h-.074v.073c-.33.019-.31.1-.508.218.019.424.152.684-.146.872.056.073.089.07.146.144h-.146c-.043.145.01.062-.073.145.082.082,0,.031.144.073l-.072.436-.146.072v.218h-.073v.218h-.072v.581h-.073a.561.561,0,0,0-.073.29h-.146v.146h.363c.044.146-.01.063.073.146v.218l-.145-.073c-.049.073-.1.145-.146.218h-.582v.146c.146.044.064-.011.146.073h-.146c-.042.145.012.063-.071.146.082.081,0,.031.146.073v.291h-.075c-.023.073-.046.145-.071.218-.334-.043-.181-.07-.364-.218-.048.17-.1.339-.144.508l-.218.146.073.073c-.025.1-.049.194-.073.291l.872-.146v.146h.071c.022.122-.068.127-.071.145v.653a.907.907,0,0,1-.364-.072v.145h-.218v-.145A3.372,3.372,0,0,0-25.9-36.2c-.048.172-.02.137-.145.218a.7.7,0,0,0,.073.291h.073c-.025.048-.049.1-.073.145h.146c.024.122.047.242.073.363H-25.9v.145h-.363v.364a.7.7,0,0,0-.291-.073c-.02.312-.077.251-.073.508l.073.073h-.073v.291l-.218.073c-.025.048-.049.1-.073.145-.073.054-.108.051-.13.049s-.035-.006-.088.168h-.291c.049.073.1.145.146.218h-.073v.145l-.218-.072V-33h-.219v-.144c-.145-.044-.062.009-.145-.073h-.073v.29a.176.176,0,0,0-.09-.015c-.015,0-.008,0-.054-.057h.072v-.073h-.072c.024-.049.049-.1.072-.145h-.072v-.073l-.218.073a1.279,1.279,0,0,0,0,.654h.218v.073h.072v.218l-.289.073v.145h-.146l-.072.581h-.073v.073l-.436-.073v-.073c-.232.092.006.144-.218.363l-.144-.072c-.177.2.11.317-.291.436v.073h.218v.073a.571.571,0,0,0,.291.144v.291h-.073a1.491,1.491,0,0,1-.073.581l-.436-.073-.073.145c-.2.075-.37-.048-.508-.073v-.218H-30.7v-.145h-.073v.073h-.073l.073-.146h-.145c-.044-.145.009-.062-.073-.145-.042-.145.011-.062-.073-.145v.145h-.218v.363h-.146c-.025.121-.048.243-.073.363h.218v.073c-.048.025-.1.049-.146.073v-.073c-.191-.02-.142.007-.218.073-.027.031-.12-.018-.072.073h.072c-.024.151,0,.067-.072.146-.006.039.042.3-.073.218v-.073h-.073c-.025.073-.048.145-.073.218-.145-.044-.063.009-.146-.073-.064.075-.1.03-.072.218h.072v.073l-.218.073c.082.081,0,.031.146.072,0,0-.011.282-.073.146v-.073H-32.3a3.245,3.245,0,0,1-.217.508l-.146.073v.218h-.073v.146H-32.8v.363l-.146.072c.024.073.049.146.072.218h-.072c-.082.217-.022.144,0,.364h-.218v-.073h-.073v-.073h.073l-.073-.145h.073v-.073h-.073v-.073a1.655,1.655,0,0,1-.58.146v.218h-.073l.073.073c-.025.048-.049.1-.073.146h.073c.024.072.049.144.073.218h.146c.1.037-.029.094.072.073s-.03-.059.073-.073v.508l-.581.073c-.024-.049-.049-.1-.073-.145-.177-.123-.31-.034-.508,0-.056-.2-.017-.165-.218-.218v-.218h-.073V-26.1c-.346.058-.376.357-.581.073a.4.4,0,0,0-.145.291l-.291.072L-36-25.738c-.049.072-.1.145-.147.218h-.581v.146c.146.044.063-.011.146.072h-.146c-.043.146.011.063-.073.146.082.081,0,.032.146.073v.291h-.073c-.023.073-.048.145-.073.218-.332-.043-.18-.07-.363-.218-.049.169-.1.339-.145.508l-.219.146.073.072c-.025.1-.049.194-.073.29l.872-.144v.144h.073c.021.122-.069.127-.073.146v.654a.934.934,0,0,1-.363-.072v.144h-.219v-.144h-.145c-.034-.015-.022-.132-.146-.146v.073H-37.6a1.061,1.061,0,0,1-.073-.436h-.218v.145l-.073-.071c-.116-.016-.089.122-.145.144h-.218c.024.145.047.291.072.436h-.072v.073l.289-.073c.026.049.049.1.073.146l.218.073-.073.145h.145c.025.122.049.242.073.363h-.146v.146h-.363c-.1-.016.03-.08-.073-.073v.073l-.435.072c.006-.226.035-.538-.073-.654v-.145c-.149.079-.128.122-.363.145-.024-.073-.049-.145-.072-.218h.072V-22.9h-.218c-.02.312-.077.251-.073.509l.073.073h-.073v.291l-.218.072-.073.146c-.074.054-.108.051-.13.049s-.033-.006-.088.169h-.29l.145.218h-.073v.146l-.218-.073v.146h-.218v-.146c-.145-.044-.063.011-.145-.073h-.073v.29a.2.2,0,0,0-.092-.016c-.014,0-.008.006-.053-.056a.117.117,0,0,1,.063-.013c.015,0,0,0,.009-.06h-.072l.072-.146h-.072v-.073c-.073.024-.146.049-.219.073a1.3,1.3,0,0,0,0,.653h.219v.073h.072v.218l-.291.073v.144h-.146c-.023.194-.048.389-.073.582h-.073c-.128.094-.368-.028-.581-.073v-.218a.849.849,0,0,0-.363.072v.073l-.218-.073v.218h-.145l.073.218h-.146v.218l-.073-.073c-.083,0-.115.16-.145.218H-43.2v.145h-.217v.727h.145v.436c0,.018.1.023.072.146h-.072c-.025.12-.048.241-.073.363-.144.044-.061-.009-.144.073a1.375,1.375,0,0,1-.508-.073v-.144c.145-.044.061.009.145-.073l-.291-.073v-.218h-.291v.146h-.217v.145h-.218c-.044-.145.009-.063-.073-.145a1.875,1.875,0,0,1-.145.581s0,.275-.073.145v-.145h-.071v.363c-.146.044-.063-.01-.146.073-.2.055-.166.017-.219.218l.436.072v-.072h.364v.218h-.218c.069.109.141.122.218.218-.064.027-.241.046-.291.073l-.073.146h-.29c-.063.03.006.1-.217.144.023.073.047.145.071.218h-.071v.218l.145-.073c.066.032-.017.048.145.073,0,0,0-.279.073-.145v.073c.122.083.1.045.144.219,0,0-.28.006-.144.072h.144c-.067.173-.056.162.08.151.037,0,.083-.006.138-.006v.073c-.21.056-.015.04-.218,0v.145c-.263,0-.332.012-.436-.145-.116-.113-.055-.045.074-.145v-.218a.726.726,0,0,1-.291.073,1.152,1.152,0,0,1-.073.435H-46.1v-.073h-.727c.025.073.048.146.073.218l-.073.073h.073v.073l.146-.073c.024.073.047.146.072.218h-.144v.146c.2.056.165.018.218.218h-.218v-.072l-.073.072-.145-.072v.29h-.146v.218h-.073v.073l-.218-.073c-.027.37-.188.911.073,1.163-.045.144.01.062-.073.144v.074h-.436c-.061.081.01.011-.073.072v.146h.073a1.607,1.607,0,0,0-.073.29h-.144v.146h-.073c-.047-.138.054-.084-.073-.146-.061.208-.08.193-.127.177a.167.167,0,0,0-.164.041v.073h.073c-.022.061-.147.227-.073.363h.073v.073l.146-.073v.073c.215.089.218.034.436,0-.024.073-.049.144-.073.218h.073c.024.121.049.243.073.363l-.436.074s-.01-.282-.073-.146v.072h-.073v-.144h-.146v.218h-.217V-9.9h-.291c0,.362.065.46.291.581-.024.17-.049.34-.073.508l-.218.074c-.011.013.1.178.073.29h-.073c-.008.051.006.044.024.037s.04-.015.049.036c-.024.121-.049.242-.073.363-.17,0-.21-.07-.291-.072-.075.047-.083.194-.218.218-.081-.062.029-.056-.073-.072v.144c-.158-.034-.206-.046-.29-.144h-.073v.29h-.146q-.035.691-.073,1.381h-.436v.073h.073v.073h-.073v.073l-.218-.073v.073h-.072c.024.1.047.194.072.29h.218l-.073.218.073.073-.145.073.073.218h-.146v.29h-.072c-.013.074.121.128.089.249h.011l-.006.1.052.013v.508h-.07c0,.081,0,.162,0,.242l.144-.024V-3.5l-.136.068a10,10,0,0,0,.177,1.548A8.9,8.9,0,0,0-49.711.545a15.876,15.876,0,0,0,2.9,3.685c.134.134,1.59,1.476,1.756,1.621,3.032,2.653,6.132,5.24,9.2,7.857l.018.018a7.148,7.148,0,0,1,2.146,3.105,3.8,3.8,0,0,1-.26,2.961,5.38,5.38,0,0,1-2.109,2.065,10.64,10.64,0,0,1-5.238,1.29,19.626,19.626,0,0,1-4.046-.472c-.253-.054-.544-.121-.878-.2q-.467-.114-.9-.235h0l-.008,0h0q-1.672-.459-3.414-1.114-1.361-.511-2.8-1.153l-.037,6.95a18.775,18.775,0,0,0,4.774,1.636,1,1,0,0,1,.045-.16l.363-.073v.3l.087.013a24.9,24.9,0,0,0,3.212.209v-.017h.073c.018-.048.027-.042.037-.037s.018.013.037-.036l-.073-.146.145-.072c-.048-.073-.1-.146-.145-.218a.708.708,0,0,1,.291-.073.854.854,0,0,1,0-.581h.072c-.025-.073-.049-.145-.072-.219h.072a.584.584,0,0,0,.073-.29h.073v.29c.173-.153.139.017.146.219h.073v-.219h.073v.291c-.145.044-.063-.01-.145.074h-.073v.073h.655a1.034,1.034,0,0,1,.218-.583c.049-.023.1-.048.146-.072v-.146l.146-.146.217-.072-.072-.146.145.073v-.146c.1-.11.189-.059.29-.218h.073l-.073.146c.145.042.063-.011.145.072h.073v-.654h.436l-.072.218h-.146v.509h-.145v.073h.073c.023.073.048.144.073.218.2-.051.164-.1.363-.146v.363h.073v-.218c.018-.031.1-.061.146-.146h.073c-.049-.121-.1-.242-.146-.364l.073-.072a1.471,1.471,0,0,0,.291.072c-.049-.072-.1-.145-.146-.217l.218-.074v.074h.073l-.073.072c.025.073.049.145.073.219h.364V26.5h.072v.074h.728c.044-.146-.011-.063.072-.146v.146h.146c.027-.11.087-.315.218-.291v.072h.073c.025-.146.049-.29.073-.435h.291c.025-.1.039.318.063.22l.167-.168-.012-.489.04.378v.028c.122.083.134-.289.178-.115h.073c-.024.048-.049.1-.073.146h.073c-.049.072-.1.145-.145.218l.145.071v.074h-.145c-.025.072-.05.145-.073.217l.073.074h-.073v.072h.291a1.054,1.054,0,0,1,.218-.436V26.14l.218.071v-.289l.581-.073v-.073h.073v-.218h.072a13.069,13.069,0,0,0,1.887-1.034,15.681,15.681,0,0,0,1.427-1.872c.01-.12.073-.146.073-.146.016-.08-.152-.139-.073-.291h.073c.078-.082.079-.071.1-.058s.041.017.119-.013V22.07c.232-.072.326.083.434.145V22.07h.291l.072.145h.146c-.072-.257-.139-.207-.365-.291v-.436h.293c-.123-.211-.216-.208-.219-.58h.144V20.69a3.364,3.364,0,0,1,.655.072,1.94,1.94,0,0,0-.074-.29h.074v-.291h.144v-.072l.364.072v-.072h.072c-.077-.14-.053-.175.073-.291v-.58h.073v.073h.073c.034-.159.063.075.073.145h.073l.072-.436c-.029-.037-.118.019-.072-.073h.072v-.073c.115-.1.061.134.073.146h.073v-.146h.146v-.29h.218a1.823,1.823,0,0,0,.073.29H-30.7v.146h.218c.024-.049.049-.1.073-.146l.363.073c-.025.073-.048.145-.073.218h.508c-.082-.214.013-.08-.218-.073v-.145h.291v-.073h-.291V18.8H-29.9v.073h-.072v-.146a.693.693,0,0,0-.364-.144c0-.265.012-.334-.145-.436v-.073a2.463,2.463,0,0,1-.8.073v-.218c.072-.025.144-.05.218-.073V17.71c.287.023.283.137.364-.145l.291.145v-.073h.072c.127.166-.085.192.218.365v-.146l.436-.073V17.71a.217.217,0,0,1,.054,0c.063.006.149.011.091-.075h-.073v-.073c.055-.056.069-.044.08-.032s.018.027.067-.041h-.146v-.145l-.291.072a2.679,2.679,0,0,1-.145-.508h.291v.072h.073c-.011-.058-.051-.6-.073-.654l-.146-.072V16.04c-.01-.018-.107-.072-.145-.145a.851.851,0,0,1,.363-.073.71.71,0,0,1-.073-.291.59.59,0,0,1,.363-.072v.072h.073v-.072l.218-.073c.025-.049.049-.1.073-.144H-29.1v-.074l.146-.073c-.024-.072-.049-.145-.073-.218h.073v-.072h.073v.072h.218c-.025-.047-.048-.1-.073-.145h.146c-.151-.3.135-.271.218-.436v-.363c.032-.055.087-.05.145-.046a.2.2,0,0,0,.144-.027v-.073h.073V13.57a.835.835,0,0,1,.365.072v.073l.217-.073v-.218l-.217-.073c0-.169.06-.188.073-.291h-.073a.422.422,0,0,1,0-.363c.048-.025.1-.049.145-.073v-.291h.072c.082-.081,0-.031.146-.072l.219.436.218.073c.065.08-.063.063-.073.073.023.139.085.106.218.145-.024-.073-.049-.145-.073-.218h.019c-1.347-2.151-4.3-4.285-7.26-6.427C-38.624,3.01-43.254-.338-42.672-4.342a5.82,5.82,0,0,1,.843-2.341,6.334,6.334,0,0,1,4.287-2.623,16.9,16.9,0,0,1,5.6-.015,20.824,20.824,0,0,1,7.065,2.215l-.57,1.121A19.455,19.455,0,0,0-32.005-8.01,15.749,15.749,0,0,0-37.222-8a5.28,5.28,0,0,0-3.573,2.131,4.559,4.559,0,0,0-.656,1.833c-.455,3.135,3.818,6.226,8.071,9.3a38.7,38.7,0,0,1,6.8,5.7c.163.018.156.013.239.14h.073v-.218h.073v-.073h.146a2.477,2.477,0,0,1,.073.581l.218.073v-.218h-.073a.748.748,0,0,1,.073-.291c.206.019.265.031.363.146h.072c-.025-.073-.048-.146-.072-.218.042-.053.056-.042.07-.029s.029.027.075-.044h-.145v-.073l-.363.073v-.073h-.073c-.185-.344.263-.168-.073-.436a.755.755,0,0,1,.073-.29l.726-.073c-.01-.046.048-.209-.073-.145v.073h-.073V9.719h-.073V9.646l-.144.073V9.573l.8-.073a1.659,1.659,0,0,0,.146-.654l.218-.073v.073h.146V8.7h.145V8.339h-.145V8.266l.145-.073c.06-.279-.118-.227-.145-.291V7.685c.145-.045.062.009.145-.073.145-.044.063.01.146-.073l-.436-.145-.072-.291h.436V6.739h.218V6.594h-.218a.667.667,0,0,1,.144-.363h.509V6.3h.436c-.074-.213-.078-.148,0-.363a1.338,1.338,0,0,0-.508-.073V5.65l-.509-.073V5.142h.072V5h.074c.061-.188-.132-.365,0-.581.032-.055.087-.05.145-.046a.2.2,0,0,0,.145-.026V4.27H-23.5c.048-.1.1-.194.146-.291h.144l.074-.436H-23V3.325a1.655,1.655,0,0,1,.217.218l.291-.073v.073h.218V3.76a.882.882,0,0,1,.363-.072V3.543c-.217-.025-.2-.007-.29-.145h-.073V3.325l.145-.073a.8.8,0,0,0-.073-.509l.218-.073a1.158,1.158,0,0,1,.073-.436h.291c-.024-.145-.049-.29-.073-.436h.073a.75.75,0,0,0,.073-.363h-.218q-.037-.363-.073-.726C-22.078.7-22.1.713-22.2.563c-.082-.081-.032,0-.073-.145.081-.082.03,0,.073-.144h.218V.346h.073a2.132,2.132,0,0,0,.073-.508l.218-.073c.044.145-.011.063.073.145.024-.145.047-.29.073-.435l.144-.073v-.29c.008-.008.043.017.092.042a.221.221,0,0,0,.2.03V-.889c.073-.061.12-.032.146-.146h-.073v-.073l.363-.072v-.145a1.386,1.386,0,0,1,.508.072V-1.4L-20.6-1.47l.072-.727.291-.145c-.074-.223-.043-.113,0-.363h.146v-.073l.218.073v-.073c.144-.044.063.011.146-.072h-.146v-.218L-20.235-3c-.025-.072-.048-.145-.073-.218h.146a1.922,1.922,0,0,1,.073-.291h-.073v-.218l.29-.073V-3.94h-.218v-.146h-.436c.025-.072.048-.145.073-.218h.291v-.218c.21-.058.213-.115.29-.291h.146a1.1,1.1,0,0,1,.072.436h.073v-.218h.146V-4.74a1,1,0,0,0,.508,0v-.145h.363v-.146a.64.64,0,0,1-.508-.144.715.715,0,0,0-.072.29h-.509v-.436l-.146-.072V-6.12h.291V-5.9h.073v.145A.967.967,0,0,1-19-5.9v-.291c.073-.023.146-.048.218-.073.041-.1.034-.279.073-.363h.073c.03-.055.144-.231.072-.364h-.072v-.146a.291.291,0,0,0-.146.146h-.073c.025-.049.049-.1.073-.146l-.872.364v-.073h-.072l.072-.073v-.218h.073a.941.941,0,0,0,.218-.363l.727-.073a1.2,1.2,0,0,0-.073-.509h-.073V-8.3h-.073c-.024-.073-.049-.145-.073-.218h.145v-.072c-.115.011-.13-.238-.145-.363h-.218v-.073h-.073c-.06-.187.176-.22.218-.291l-.073-.073c.024-.145.049-.291.073-.435h.146V-9.9h-.218v-.218h.146c-.024-.29-.049-.58-.073-.872h.073a.581.581,0,0,0,.073-.289h.363v.072c.089-.071.077-.161.146-.218h.145V-11.5h.146c.074-.07-.074-.073-.074-.073v-.291c.039-.029.044-.029.045-.029s0,0,.029-.043h.363v-.218l.654-.146v-.29ZM-51.921-2.706h-.356l-.073.145-.146-.072v.072c-.149.018-.085-.025-.145-.072h-.073v.218l.145-.073v.145l.219.145v.291c.28-.123.19-.123.508-.073-.022.144-.068.132-.073.146-.019.053-.007.05.014.049a.053.053,0,0,1,.059.023c-.015.109-.073.1-.146.146v.073h.218c-.025.073-.049.146-.073.218-.253.039-.136.073-.363,0a1.239,1.239,0,0,0-.145.363h.145v.145l-.073-.072h-.073v.072h-.291V-.6c-.146-.043-.063.01-.146-.073h-.073v.218a.219.219,0,0,1-.032,0c-.065,0-.194-.006-.113.073.011.034.13-.013.073.073l-.218.146c.024.145.049.291.073.436h-.363V.2h-.073c.025.074.049.146.073.218h-.073V.782h.073V.854h-.146l.073.218h-.435s.011.073-.146.073l-.146-.073v.073h-.145a.707.707,0,0,0,.073.363h.072c-.023.049-.048.1-.072.146h.072v.363h.073v.145h.073v.363h.073c.126.153.147.042.218.291-.2.056-.165.016-.218.218h.435l.073.145.218-.073v.073h.073V3.107h.073c-.049.146-.1.291-.146.436h-.436c-.024.122-.049.242-.073.363-.145-.044-.063.011-.145-.073-.049-.054-.1,0-.073-.145h.073V3.616h-.073V3.543l.146.073c.042-.145-.011-.063.072-.146V3.4h-.291c-.071-.036.012-.1-.218-.145q-.036.181-.073.363h.145l.073.29h-.218c-.055-.2-.017-.165-.218-.218V3.47h-.146V3.253c-.146.044-.063-.011-.146.073h-.074V3.107c-.144.044-.062-.011-.144.073h-.073V3.4c-.018.047-.042.041-.057.034s-.025-.013-.015.038h.072v.073s-.055,0-.072.146c-.145-.044-.063.01-.145-.073h-.073c.023-.073.048-.146.073-.218h-.291c-.025.145-.049.291-.073.436h-.146a.339.339,0,0,1-.218.291,1.783,1.783,0,0,1,.218.581h.146v.218h.073V5h-.218l-.073-.218H-56.2l-.073.29h.145c-.082.082,0,.031-.145.074.083.121.044.1.218.144V5.5a2.048,2.048,0,0,1-.291-.072V5.5h-.218V5.36l-.363-.073V5.5c-.145.044-.063-.009-.145.073h-.073a.534.534,0,0,0,.073-.291,4.6,4.6,0,0,1-.436.291c-.127-.254-.065-.171-.364-.218a.779.779,0,0,0,.146-.436h-.218V4.559h-.1V30l.031-.008c.013.4.058.4-.031.626v.1h.031v.074h.436v-.074h.073l.073.074v-.146a2.769,2.769,0,0,1,.726,0v.218s.283-.011.146-.072h-.073v-.074h.218V30.5l.291-.072v.218h.073v.146a1.478,1.478,0,0,1,.582-.074c.044-.144-.011-.061.073-.144V30.5c.175-.061.151.117.217.146h.146V30.5c.055-.068.069.106.146.146V30.5l.291.146.073-.146a1.157,1.157,0,0,0,.072-.581c.146-.044.063.009.146-.073-.145-.043-.063.01-.146-.072H-54.6c-.07-.056.1-.067.144-.146H-54.6v-.071l.291-.074v-.072l.218.072v.074a1.2,1.2,0,0,1,.291-.074c.023.074.049.145.073.218l.218.074v-.146h.146v.146h.146v-.146c.22-.019.291-.118.435,0v.146c.077.056.128-.139.146-.146.218-.024.436-.049.653-.071l.073-.218h.363v.218h-.073c.082.08,0,.03.145.071v.146h.363v.072h.073v-.072c.424,0,.315.02.363-.291.15.08.127.122.364.145v.291h-.074v.073h.074c.044.146-.01.063.073.146V29.99l.58.073V29.99a.592.592,0,0,1,.291-.073l.061-.181-.231-.054-.047.015v-.027a19.357,19.357,0,0,1-1.889-.565v.085l-.145-.073v.146h-.363v.073h-.073c.023-.073.048-.145.073-.218-.144.044-.063-.011-.145.073H-52.2c.024-.073.048-.147.073-.219l.153-.051A21.744,21.744,0,0,1-54.244,27.9l-.384-.2,0-.446.045-8.322,0-.929.82.381q1.808.84,3.527,1.485t3.3,1.083h0l.008,0h0q.467.129.874.229c.249.061.531.125.841.191a18.5,18.5,0,0,0,3.8.445,9.525,9.525,0,0,0,4.686-1.138,4.259,4.259,0,0,0,1.673-1.612,2.465,2.465,0,0,0,.175-1.92,5.715,5.715,0,0,0-1.714-2.43h0l-9.181-7.847c-.634-.547-1.253-1.115-1.847-1.706a17.329,17.329,0,0,1-3.169-4.044,10.39,10.39,0,0,1-1-2.838q-.1-.486-.147-.989M-47.8,30l.348.645c.017,0,.023.1.145.072v-.072l.364-.073c-.024-.073-.049-.146-.073-.218h.073c-.024-.05-.049-.1-.073-.146h.218v-.073h-.145s0-.023,0-.053c-.3-.023-.586-.05-.86-.083m1.38.117c.067.227.146.218.348.165v.145l.363-.072a1.472,1.472,0,0,1,.048-.2c-.257-.008-.511-.019-.76-.033m-7.963-.779c-.038-.029-.043-.029-.044-.029s0,0-.03-.044h-.436l.073.073v.073a.3.3,0,0,1-.146-.145h-.072q.037-.109.072-.22l.291.074v.073l.291-.073Zm2.5-.379c-.006.011-.01.015.032.015h.008Z" transform="translate(58.048 42.522)" fill="#08843b"/>
      </g>
      <g id="Grupo_29159" data-name="Grupo 29159" transform="translate(74.981 4.142)">
        <path id="Caminho_23747" data-name="Caminho 23747" d="M-.061-.03V-.1H-.207c.082.081,0,.031.146.073" transform="translate(0.207 0.103)" fill="#08843b"/>
      </g>
      <g id="Grupo_29160" data-name="Grupo 29160" transform="translate(79.05 25.357)">
        <path id="Caminho_23748" data-name="Caminho 23748" d="M-.061-.03V-.1H-.207c.082.081,0,.031.146.073" transform="translate(0.207 0.103)" fill="#08843b"/>
      </g>
      <g id="Grupo_29161" data-name="Grupo 29161" transform="translate(78.832 28.336)">
        <path id="Caminho_23749" data-name="Caminho 23749" d="M-.061-.091c.044-.145-.011-.063.073-.145V-.309H-.206c.044.145-.011.063.073.146v.072Z" transform="translate(0.206 0.309)" fill="#08843b"/>
      </g>
      <g id="Grupo_29162" data-name="Grupo 29162" transform="translate(71.348 3.852)">
        <path id="Caminho_23750" data-name="Caminho 23750" d="M-.031,0A2.471,2.471,0,0,1-.1.508H.114V.436H.187A.515.515,0,0,1,.114.144H.331V.072L-.031,0" transform="translate(0.104)" fill="#08843b"/>
      </g>
      <g id="Grupo_29163" data-name="Grupo 29163" transform="translate(73.964 46.574)">
        <path id="Caminho_23751" data-name="Caminho 23751" d="M0-.03V.042H.364V.115H.436C.479-.03.426.052.509-.03V-.1H.145C.063-.022.146-.072,0-.03" transform="translate(0 0.103)" fill="#08843b"/>
      </g>
      <g id="Grupo_29164" data-name="Grupo 29164" transform="translate(48.606 31.969)">
        <path id="Caminho_23752" data-name="Caminho 23752" d="M-.061,0H-.207c.083.082,0,.031.146.073Z" transform="translate(0.207)" fill="#08843b"/>
      </g>
      <g id="Grupo_29165" data-name="Grupo 29165" transform="translate(74.981 3.706)">
        <path id="Caminho_23753" data-name="Caminho 23753" d="M-.061,0H-.207c.024.121.049.242.073.363h.073Z" transform="translate(0.207)" fill="#08843b"/>
      </g>
      <g id="Grupo_29166" data-name="Grupo 29166" transform="translate(69.024 56.527)">
        <path id="Caminho_23754" data-name="Caminho 23754" d="M-.061-.03V-.1H-.206c.082.081,0,.031.145.073" transform="translate(0.206 0.103)" fill="#08843b"/>
      </g>
      <g id="Grupo_29167" data-name="Grupo 29167" transform="translate(73.529 46.936)">
        <path id="Caminho_23755" data-name="Caminho 23755" d="M-.061-.123H-.135V.1H-.206c.055.2.017.165.218.218V.531H.084V.314C.117.247.216.286.229.167H.157V.1C.142.046.128.053.115.059S.092.074.084.022H.157V-.123H.229A.5.5,0,0,0,.3-.414H.012C-.006-.249,0-.223-.061-.123" transform="translate(0.206 0.414)" fill="#08843b"/>
      </g>
      <g id="Grupo_29168" data-name="Grupo 29168" transform="translate(48.215 72.427)">
        <path id="Caminho_23756" data-name="Caminho 23756" d="M0,0,.027.085c.1-.025.66,1.623.756,1.6C.748,1.565.47.491.322.051L.262.042C.175.029.087.015,0,0" fill="#08843b"/>
      </g>
      <g id="Grupo_29169" data-name="Grupo 29169" transform="translate(46.209 72.802)">
        <path id="Caminho_23757" data-name="Caminho 23757" d="M-.092-.062V-.135H-.02V-.208H-.31c.046.065.063.2.218.146" transform="translate(0.31 0.208)" fill="#08843b"/>
      </g>
    </g>
    <path id="Caminho_23759" data-name="Caminho 23759" d="M55.111-62.752h.145v-.29h-.145Z" transform="translate(-16.314 -18.606)" fill="#08843b"/>
    <g id="Grupo_29179" data-name="Grupo 29179" transform="translate(0 -125.897)" clip-path="url(#clip-path)">
      <g id="Grupo_29171" data-name="Grupo 29171" transform="translate(69.169 55.582)">
        <path id="Caminho_23760" data-name="Caminho 23760" d="M-.061-.031V-.1H-.206c.082.082,0,.031.145.074" transform="translate(0.206 0.105)" fill="#08843b"/>
      </g>
      <g id="Grupo_29172" data-name="Grupo 29172" transform="translate(67.278 59.579)">
        <path id="Caminho_23761" data-name="Caminho 23761" d="M-.092-.061V-.207h-.22a.557.557,0,0,0,.22.146" transform="translate(0.312 0.207)" fill="#08843b"/>
      </g>
      <g id="Grupo_29173" data-name="Grupo 29173" transform="translate(57.499 68.516)">
        <path id="Caminho_23762" data-name="Caminho 23762" d="M-.031,0H-.1V.146C.041.1-.041.155.041.073H-.031Z" transform="translate(0.104)" fill="#08843b"/>
      </g>
      <g id="Grupo_29174" data-name="Grupo 29174" transform="translate(62.412 66.045)">
        <path id="Caminho_23763" data-name="Caminho 23763" d="M-.03-.061V.084H.042V-.207H-.1c.043.146-.011.063.072.146" transform="translate(0.102 0.207)" fill="#08843b"/>
      </g>
      <g id="Grupo_29175" data-name="Grupo 29175" transform="translate(65.754 61.759)">
        <path id="Caminho_23764" data-name="Caminho 23764" d="M-.061-.03V-.1H-.206c.082.081,0,.031.145.073" transform="translate(0.206 0.103)" fill="#08843b"/>
      </g>
      <g id="Grupo_29176" data-name="Grupo 29176" transform="translate(11.767 17.016)">
        <path id="Caminho_23765" data-name="Caminho 23765" d="M-.062-.091v.073H.011v-.29H-.208a.571.571,0,0,0,.146.218" transform="translate(0.208 0.309)" fill="#c6c335"/>
      </g>
      <g id="Grupo_29177" data-name="Grupo 29177" transform="translate(9.006 47.24)">
        <path id="Caminho_23766" data-name="Caminho 23766" d="M-.153,0H-.372V.146H-.517V.218H-.3V.291h.072Q-.261.4-.3.509c.008.051.031.044.051.037s.034-.014.021.035L-.3.654h.145A1.049,1.049,0,0,1-.007.146H-.153Z" transform="translate(0.517)" fill="#c6c335"/>
      </g>
      <g id="Grupo_29178" data-name="Grupo 29178" transform="translate(15.909 17.016)">
        <path id="Caminho_23767" data-name="Caminho 23767" d="M-.061,0H-.133C-.157.072-.181.145-.206.218h.145Z" transform="translate(0.206)" fill="#c6c335"/>
      </g>
    </g>
    <path id="Caminho_23769" data-name="Caminho 23769" d="M19.09-105.369h.218v-.073H19.09Z" transform="translate(-5.651 -6.055)" fill="#c6c335"/>
    <g id="Grupo_29181" data-name="Grupo 29181" transform="translate(0 -125.897)" clip-path="url(#clip-path)">
      <g id="Grupo_29180" data-name="Grupo 29180" transform="translate(9.151 45.787)">
        <path id="Caminho_23770" data-name="Caminho 23770" d="M-.061,0H-.207V.074h.073V.51h.073V.363H.23C.145.069.082.218-.061,0" transform="translate(0.207)" fill="#c6c335"/>
      </g>
    </g>
    <path id="Caminho_23772" data-name="Caminho 23772" d="M17.645-101.963h.218v-.073h-.218Z" transform="translate(-5.223 -7.063)" fill="#c6c335"/>
    <g id="Grupo_29185" data-name="Grupo 29185" transform="translate(0 -125.897)" clip-path="url(#clip-path)">
      <g id="Grupo_29182" data-name="Grupo 29182" transform="translate(16.635 59.665)">
        <path id="Caminho_23773" data-name="Caminho 23773" d="M-.061-.031V-.1H-.207c.083.082,0,.031.146.073" transform="translate(0.207 0.104)" fill="#c6c335"/>
      </g>
      <g id="Grupo_29183" data-name="Grupo 29183" transform="translate(17.726 60.828)">
        <path id="Caminho_23774" data-name="Caminho 23774" d="M0-.122H.146C.189.023.135-.06.218.023.242-.1.267-.219.291-.34L.073-.413A.729.729,0,0,0,0-.122" transform="translate(0 0.413)" fill="#c6c335"/>
      </g>
      <g id="Grupo_29184" data-name="Grupo 29184" transform="translate(14.965 58.139)">
        <path id="Caminho_23775" data-name="Caminho 23775" d="M-.061-.03V-.1H-.206c.082.082,0,.031.145.073" transform="translate(0.206 0.103)" fill="#c6c335"/>
      </g>
    </g>
    <path id="Caminho_23777" data-name="Caminho 23777" d="M14.342-56.48h.146v-.145h-.146Z" transform="translate(-4.245 -20.505)" fill="#c6c335"/>
    <g id="Grupo_29189" data-name="Grupo 29189" transform="translate(0 -125.897)" clip-path="url(#clip-path)">
      <g id="Grupo_29186" data-name="Grupo 29186" transform="translate(11.042 50.147)">
        <path id="Caminho_23778" data-name="Caminho 23778" d="M-.03-.061V-.134H.042V-.207H-.1c.044.145-.011.063.073.146" transform="translate(0.103 0.207)" fill="#c6c335"/>
      </g>
      <g id="Grupo_29187" data-name="Grupo 29187" transform="translate(14.093 55.524)">
        <path id="Caminho_23779" data-name="Caminho 23779" d="M0,0V.145H.073C.029,0,.082.083,0,0" fill="#c6c335"/>
      </g>
      <g id="Grupo_29188" data-name="Grupo 29188" transform="translate(20.778 22.755)">
        <path id="Caminho_23780" data-name="Caminho 23780" d="M-.244-.153C-.323-.3-.366-.282-.389-.517H-.462V-.3H-.535v.073h-.29v.145a.94.94,0,0,1,.363.073c.082-.122.044-.1.218-.144" transform="translate(0.825 0.517)" fill="#c6c335"/>
      </g>
    </g>
    <path id="Caminho_23782" data-name="Caminho 23782" d="M41.693-79.629h.072v-.218h-.072Z" transform="translate(-12.342 -13.631)" fill="#c6c335"/>
    <g id="Grupo_29201" data-name="Grupo 29201" transform="translate(0 -125.897)" clip-path="url(#clip-path)">
      <g id="Grupo_29190" data-name="Grupo 29190" transform="translate(22.012 25.807)">
        <path id="Caminho_23783" data-name="Caminho 23783" d="M-.061-.031V-.1H-.207c.083.082,0,.031.146.073" transform="translate(0.207 0.104)" fill="#c6c335"/>
      </g>
      <g id="Grupo_29191" data-name="Grupo 29191" transform="translate(30.805 35.326)">
        <path id="Caminho_23784" data-name="Caminho 23784" d="M-.061-.03H-.134V-.1H-.2V.042C-.061,0-.144.053-.061-.03" transform="translate(0.205 0.102)" fill="#c6c335"/>
      </g>
      <g id="Grupo_29192" data-name="Grupo 29192" transform="translate(31.531 34.598)">
        <path id="Caminho_23785" data-name="Caminho 23785" d="M-.092,0H-.237c-.044.146.01.063-.073.146V.218h.218Z" transform="translate(0.31)" fill="#c6c335"/>
      </g>
      <g id="Grupo_29193" data-name="Grupo 29193" transform="translate(28.261 31.111)">
        <path id="Caminho_23786" data-name="Caminho 23786" d="M0,0V.144H.073C.029,0,.082.082,0,0" fill="#c6c335"/>
      </g>
      <g id="Grupo_29194" data-name="Grupo 29194" transform="translate(28.406 31.111)">
        <path id="Caminho_23787" data-name="Caminho 23787" d="M-.061-.03V-.1H-.206c.082.08,0,.031.145.073" transform="translate(0.206 0.103)" fill="#c6c335"/>
      </g>
      <g id="Grupo_29195" data-name="Grupo 29195" transform="translate(22.304 25.444)">
        <path id="Caminho_23788" data-name="Caminho 23788" d="M-.03-.061C.113-.1.032-.05.115-.133-.03-.177.053-.122-.03-.2H-.1V.231H-.03Z" transform="translate(0.103 0.205)" fill="#c6c335"/>
      </g>
      <g id="Grupo_29196" data-name="Grupo 29196" transform="translate(28.188 31.329)">
        <path id="Caminho_23789" data-name="Caminho 23789" d="M-.061,0H-.134L-.207.218h.146Z" transform="translate(0.207)" fill="#c6c335"/>
      </g>
      <g id="Grupo_29197" data-name="Grupo 29197" transform="translate(22.885 26.025)">
        <path id="Caminho_23790" data-name="Caminho 23790" d="M0,0V.145H.072C.03,0,.082.083,0,0" fill="#c6c335"/>
      </g>
      <g id="Grupo_29198" data-name="Grupo 29198" transform="translate(17.798 60.392)">
        <path id="Caminho_23791" data-name="Caminho 23791" d="M-.061-.092V-.311c-.146.044-.063-.011-.146.073h.073v.146Z" transform="translate(0.207 0.311)" fill="#c6c335"/>
      </g>
      <g id="Grupo_29199" data-name="Grupo 29199" transform="translate(23.465 26.025)">
        <path id="Caminho_23792" data-name="Caminho 23792" d="M-.245-.092V-.164H-.535V-.237H-.608v.073H-.68V-.31H-.753l-.073.146c.1.1.374.085.581.073" transform="translate(0.826 0.31)" fill="#c6c335"/>
      </g>
      <g id="Grupo_29200" data-name="Grupo 29200" transform="translate(7.408 39.248)">
        <path id="Caminho_23793" data-name="Caminho 23793" d="M-.092-.214V-.361H.053C.025-.594-.012-.573-.092-.724H-.237A.717.717,0,0,0-.31-.433h.145v.218Z" transform="translate(0.31 0.724)" fill="#c6c335"/>
      </g>
    </g>
    <path id="Caminho_23795" data-name="Caminho 23795" d="M10.318-70.588h.218v-.073h-.218Z" transform="translate(-3.054 -16.351)" fill="#c6c335"/>
    <g id="Grupo_29203" data-name="Grupo 29203" transform="translate(0 -125.897)" clip-path="url(#clip-path)">
      <g id="Grupo_29202" data-name="Grupo 29202" transform="translate(7.844 39.466)">
        <path id="Caminho_23796" data-name="Caminho 23796" d="M-.031,0V.073H-.1V.146L.114.218C.071.073.125.156.042.073V0Z" transform="translate(0.104)" fill="#c6c335"/>
      </g>
    </g>
    <path id="Caminho_23798" data-name="Caminho 23798" d="M51.291-20.9h.073v-.218h-.073Z" transform="translate(-15.183 -31.015)" fill="#c6c335"/>
    <g id="Grupo_29213" data-name="Grupo 29213" transform="translate(0 -125.897)" clip-path="url(#clip-path)">
      <g id="Grupo_29204" data-name="Grupo 29204" transform="translate(35.599 73.398)">
        <path id="Caminho_23799" data-name="Caminho 23799" d="M-.092,0C-.237.042-.154-.011-.237.072H-.31c.025.054.14.17.073.291H-.31c.025.073.049.145.073.218H.126C.1.508.078.436.055.363H.126V.218L-.092.291Z" transform="translate(0.31)" fill="#c6c335"/>
      </g>
      <g id="Grupo_29205" data-name="Grupo 29205" transform="translate(39.305 73.906)">
        <path id="Caminho_23800" data-name="Caminho 23800" d="M0,0C.019.027.032.049.042.063L.038,0Z" fill="#c6c335"/>
      </g>
      <g id="Grupo_29206" data-name="Grupo 29206" transform="translate(32.476 37.796)">
        <path id="Caminho_23801" data-name="Caminho 23801" d="M-.03-.061V-.133C.007-.162.012-.162.013-.162s0,0,.029-.044H-.1c.044.145-.01.062.073.145" transform="translate(0.103 0.206)" fill="#c6c335"/>
      </g>
      <g id="Grupo_29207" data-name="Grupo 29207" transform="translate(25.936 30.239)">
        <path id="Caminho_23802" data-name="Caminho 23802" d="M-.061-.061H.085V-.133A.713.713,0,0,0-.206-.206c.056.074.09.071.145.145" transform="translate(0.206 0.206)" fill="#c6c335"/>
      </g>
      <g id="Grupo_29208" data-name="Grupo 29208" transform="translate(35.236 73.833)">
        <path id="Caminho_23803" data-name="Caminho 23803" d="M-.061-.03V-.1H-.206c.082.08,0,.031.145.073" transform="translate(0.206 0.103)" fill="#c6c335"/>
      </g>
      <g id="Grupo_29209" data-name="Grupo 29209" transform="translate(30.005 35.179)">
        <path id="Caminho_23804" data-name="Caminho 23804" d="M-.061-.03V-.1H-.207c.082.082,0,.031.146.073" transform="translate(0.207 0.103)" fill="#c6c335"/>
      </g>
      <g id="Grupo_29210" data-name="Grupo 29210" transform="translate(29.787 34.453)">
        <path id="Caminho_23805" data-name="Caminho 23805" d="M0-.061H.073C.029-.206.082-.123,0-.206Z" transform="translate(0 0.206)" fill="#c6c335"/>
      </g>
      <g id="Grupo_29211" data-name="Grupo 29211" transform="translate(19.034 60.755)">
        <path id="Caminho_23806" data-name="Caminho 23806" d="M-.06-.03V-.1H-.2c.082.081,0,.03.144.072" transform="translate(0.204 0.102)" fill="#c6c335"/>
      </g>
      <g id="Grupo_29212" data-name="Grupo 29212" transform="translate(18.089 60.828)">
        <path id="Caminho_23807" data-name="Caminho 23807" d="M-.122-.153H-.2V-.226h.073V-.3H-.267L-.2-.517H-.413v.364l.146-.073v.146s.28-.007.145-.073" transform="translate(0.413 0.517)" fill="#c6c335"/>
      </g>
    </g>
    <path id="Caminho_23809" data-name="Caminho 23809" d="M28.689-36.427h.217V-36.5h-.217Z" transform="translate(-8.492 -26.463)" fill="#c6c335"/>
    <g id="Grupo_29217" data-name="Grupo 29217" transform="translate(0 -125.897)" clip-path="url(#clip-path)">
      <g id="Grupo_29214" data-name="Grupo 29214" transform="translate(18.452 60.174)">
        <path id="Caminho_23810" data-name="Caminho 23810" d="M-.061-.03V-.1H-.207c.083.081,0,.031.146.073" transform="translate(0.207 0.103)" fill="#c6c335"/>
      </g>
      <g id="Grupo_29215" data-name="Grupo 29215" transform="translate(18.67 60.392)">
        <path id="Caminho_23811" data-name="Caminho 23811" d="M0-.092H.073V-.166H.146V-.238L0-.311Z" transform="translate(0 0.311)" fill="#c6c335"/>
      </g>
      <g id="Grupo_29216" data-name="Grupo 29216" transform="translate(22.521 65.114)">
        <path id="Caminho_23812" data-name="Caminho 23812" d="M-.031-.091v.074H.041A.709.709,0,0,0,.114-.309L-.1-.236c.044.145-.011.063.073.145" transform="translate(0.104 0.309)" fill="#c6c335"/>
      </g>
    </g>
    <g id="Grupo_29218" data-name="Grupo 29218" transform="translate(20.197 -62.817)">
      <path id="Caminho_23814" data-name="Caminho 23814" d="M0,0V.073H.073V.144H.291V0Z" fill="#c6c335"/>
    </g>
    <g id="Grupo_29219" data-name="Grupo 29219" transform="translate(22.885 -59.983)">
      <path id="Caminho_23815" data-name="Caminho 23815" d="M0,0V.364H.073V.435H.146V0Z" fill="#c6c335"/>
    </g>
    <g id="Grupo_29224" data-name="Grupo 29224" transform="translate(0 -125.897)" clip-path="url(#clip-path)">
      <g id="Grupo_29220" data-name="Grupo 29220" transform="translate(26.953 70.2)">
        <path id="Caminho_23816" data-name="Caminho 23816" d="M-.031-.061V-.133c.037-.03.043-.03.043-.03s0,0,.029-.044H-.1c.044.145-.01.063.073.146" transform="translate(0.104 0.207)" fill="#c6c335"/>
      </g>
      <g id="Grupo_29221" data-name="Grupo 29221" transform="translate(30.659 71.29)">
        <path id="Caminho_23817" data-name="Caminho 23817" d="M0,0V.145H.073C.027,0,.082.082,0,0" fill="#c6c335"/>
      </g>
      <g id="Grupo_29222" data-name="Grupo 29222" transform="translate(29.061 70.919)">
        <path id="Caminho_23818" data-name="Caminho 23818" d="M-.059,0C-.081,0-.106,0-.13,0a.461.461,0,0,1-.07,0c.122.137.043.142.218.073C.051.015,0,0-.059,0" transform="translate(0.2)" fill="#c6c335"/>
      </g>
      <g id="Grupo_29223" data-name="Grupo 29223" transform="translate(26.54 69.547)">
        <path id="Caminho_23819" data-name="Caminho 23819" d="M-.051-.091V-.309H-.124c-.007.224-.146.146.073.218" transform="translate(0.174 0.309)" fill="#c6c335"/>
      </g>
    </g>
    <path id="Caminho_23821" data-name="Caminho 23821" d="M34.054-29.823h.22V-29.9h-.22Z" transform="translate(-10.08 -28.418)" fill="#c6c335"/>
    <g id="Grupo_29226" data-name="Grupo 29226" transform="translate(0 -125.897)" clip-path="url(#clip-path)">
      <g id="Grupo_29225" data-name="Grupo 29225" transform="translate(6.828 14.618)">
        <path id="Caminho_23822" data-name="Caminho 23822" d="M-20.863-23.7l-.13-.008.072-.124-.128-.008c-.031-.131.013-.055-.056-.132l-.009.128-.116-.037-.006-.011a.035.035,0,0,1,.007-.008l-.011-.013c-.006-.057.036-.1-.037-.149l-.029,0a.643.643,0,0,0-.064-.072l.056-.088-.312-.146-.129-.153.084-.136.15.094.126-.2c-.056-.06-.113-.118-.168-.177,0-.044.008-.087.012-.131-.048-.068-.034.011-.081.02l-.051-.033.031-.049-.18-.045-.064.1-.044-.03v-.015l.024-.038c-.007-.008-.013-.016-.02-.025l.007-.115.025.008a.217.217,0,0,0-.018-.122l0-.063c.047-.046.009-.028.09-.046l.032-.05.068.113.031-.049.1.063.025-.264c.029-.03.035-.018.042-.008s.011.023.04-.01a.224.224,0,0,1-.041-.028c-.056-.041-.146-.1-.141-.016,0,.04.018.044.027.046s.016,0-.009.037l-.182-.044.094-.151-.049-.031.032-.051L-21.8-26l-.064.1A.144.144,0,0,0-22-25.913c-.078-.031-.037-.217-.056-.245l-.132-.012s.03-.058-.069-.114l-.081.018c0-.044.008-.087.013-.132-.077-.024-.155-.049-.232-.075.062-.171.122-.343.183-.515l-.1-.063.1-.149a.142.142,0,0,1,.07.027c.009.008,0,.007.061-.015a.119.119,0,0,0-.038-.036c-.01,0,0,0,.019-.046l.051.032.013-.132c.08.094.047.02.068.113l.05.032.094-.151-.15-.094.063-.1.118.144.032-.05.05.032a.227.227,0,0,0-.037-.165c-.082.016-.01.062-.082.02-.031-.16.122-.066-.056-.245l.094-.151-.132-.012.126-.2-.051-.032.032-.05c.03-.03.036-.018.041-.008s.011.02.041-.01c-.326-.207-.261-.291-.376-.515l.132-.209q-.4-.006-.818-.034l-.01.015-.007-.017a21.535,21.535,0,0,1-3.008-.436c-.253-.054-.544-.121-.878-.2q-.467-.114-.9-.236h0l-.008,0h0q-1.672-.459-3.414-1.114-1.361-.511-2.8-1.153l-.037,6.95a18.366,18.366,0,0,0,5.269,1.72,39.373,39.373,0,0,0,6.729.134l.034-.018.011.015.082,0,.153-.113-.08-.107.958.062Zm-1.527-6.648-.075-.047.062-.1-.15-.1.032-.05-.05-.032.125-.2-.282-.107-.094.15-.05-.031.045-.182-.1-.063.125-.2-.05-.031-.125.2-.15-.1-.146.119-.232-.076.158-.25.3.189c-.021-.093.014-.021-.069-.113l.063-.1-.151-.094.127-.2-.051-.031-.1.151-.05-.032.127-.2-.182-.045c-.127.356.022.293-.227.7l-.382-.17c.07-.034.085-.015.1,0s.014.021.036.011c.072-.033-.042-.145-.037-.163l.126-.2-.151-.1c.031-.109-.006-.386.069-.444l.051.031.032-.051-.151-.094.139-.332.05.03.126-.2-.049-.031a.45.45,0,0,1,.075-.231c-.119-.033-.038-.035-.132-.013l-.049-.032c-.09.073-.016.089-.014.132l-.03.05s-.3-.172-.233-.075l.051.031-.031.05-.1-.063.094-.151A.666.666,0,0,0-24.2-33.3l.031-.049-.05-.032c.123-.053.1-.054.264.025-.041-.187-.155-.2-.32-.27l-.062.1.049.031c-.036.081-.215.037-.244.056-.015.061-.03.121-.045.182-.076.027-.132-.044-.212.006l.05.031-.032.05-.15-.094.063-.1-.168-.176.094-.15-.15-.094.094-.151.526.051.05.032.032-.05-.1-.063.1-.151c-.132-.141-.109-.229-.257-.37.094-.081.021-.048.113-.069l.032-.05-.2-.126.032-.051-.05-.031c.047-.04.1-.08.144-.119l-.1-.063-.032.05c-.039-.048-.08-.1-.119-.145l-.032.051-.05-.032.145-.119-.05-.032.031-.05-.15-.094-.032.05-.05-.031-.012.132-.051-.032-.063.1c.039.048.079.1.119.144l-.063.1-.1-.063-.063.1-.581-.3.031-.049-.1-.063.113-.068L-26-35.549l.031-.051.1.063.032-.049c-.052-.1.066-.213.139-.332l-.051-.032-.125.2c-.057-.058-.114-.117-.17-.176.148-.127.075-.058.158-.25l-.1-.063-.1.15-.2-.125.03-.05-.1-.062c.184-.039.035-.122.045-.183l.144-.118-.069-.113c.049-.039.1-.078.145-.118l-.1-.063c-.047.04-.1.08-.144.12l-.2-.127.1-.15-.051-.032-.126.2-.049-.032.126-.2-.05-.031-.176.169-.251-.157-.2.229-.092-.031.006.04-.014.021-.035,0a.062.062,0,0,1-.008-.011l-.015-.106-.049.027-.028-.033.064-.1c0-.051-.187.089-.2.087l-.25-.157-.112.068-.2-.065a.37.37,0,0,0-.017-.039c.163-.284.115-.282.348-.441l-.051-.031.032-.051-.3-.188-.031.051-.051-.032L-28.232-38l-.062.1a2.257,2.257,0,0,1-.5-.315l.094-.15s-.2-.115-.132-.013l.051.032-.032.05-.146-.091-.015.026c0-.1,0-.2-.009-.271l-.117.017-.018-.118c-.115.036-.229.074-.342.111a.574.574,0,0,1-.092-.227c-.122-.018-.051.016-.126-.041l.118-.017-.018-.118c-.061-.011-.123-.021-.184-.033-.008,0-.009.091-.109.075l-.008-.058-.183-.034.008.06-.059.008-.017-.116-.116.016-.017-.117.234-.034-.009-.058a.6.6,0,0,0-.242-.025l.05-.067c-.029-.056-.056-.111-.083-.167.054-.027.111-.056.166-.083l-.034-.234.059-.008c-.029-.056-.057-.111-.084-.168l.108-.076c-.031-.075-.062-.15-.092-.225a1.185,1.185,0,0,1-.243-.024l.009.058-.059.009-.008-.058-.059.008.008.058-.057.008c-.026-.036-.051-.072-.076-.108l-.118.017-.008-.058c-.087-.042-.109-.029-.243-.025l-.017-.117-.117.018c-.121-.055-.093-.373-.317-.133l-.058.008-.027-.176-.058.009-.009-.059.175-.025-.008-.058-.242-.025c-.053-.111,0-.051-.076-.108-.037-.075-.044-.131-.067-.051l-.184-.032c-.019.122.015.049-.042.125l.008.058-.058.009-.009-.059-.184-.034-.042-.291.116-.017c-.062-.2-.075-.1-.042-.293l-.06.008-.008-.058-.059.008.035.234a1.069,1.069,0,0,0-.31-.075l-.018-.116-.117.017.026.176-.059.008c-.033-.1-.068-.19-.1-.284-.148.113-.045.042-.184-.033.036-.065.063-.068.1-.134l.117-.017-.008-.058-.234.034-.009-.059.235-.034c.017-.122-.016-.049.042-.125l.016.116c.17-.073.186-.137.191-.326l.118-.017-.094-.225c-.339.042-.382-.065-.419-.417l-.058.008c-.018.122.015.049-.041.126-.018.121.015.049-.043.125l-.015-.117-.117.017-.085-.167.118-.018c.077-.12.01-.13-.034-.233.027-.028.031-.029.032-.029s0,0,.018-.039l-.176.025-.168-.334-.058.008.041-.125c-.122-.018-.049.015-.127-.042l-.058.008.025.175-.367-.066a1.52,1.52,0,0,0,.093.226l-.059.009.018.116a.193.193,0,0,1-.048.006c-.05,0-.111.006-.061.07,0,0,.122-.013.068.05l-.392.177-.008-.058-.059.008.017.116c-.122-.018-.049.015-.126-.041-.034-.019-.038-.018-.038-.018s0,0-.029-.032a.7.7,0,0,1,.284-.1l-.025-.176-.184-.032c.02-.156.052-.158.087-.161a.068.068,0,0,0,.063-.041l-.085-.167.234-.034a1,1,0,0,0,0-.417l-.058.008-.008-.058.051-.066-.184-.034-.017-.116c-.122-.019-.049.014-.126-.042l-.058.008-.008-.058.058-.009-.017-.118a1.077,1.077,0,0,1-.527.077l.008.059-.059.008c-.106-.073.045-.054-.075-.108a.691.691,0,0,0-.015.3c-.22.061-.152.1-.334.168-.018.122.015.049-.042.125s0,.025-.109.075l-.076-.108.051-.067c-.231.037-.366.056-.486-.049-.034-.023-.09.029-.067-.051l.108-.075c.008-.107-.149-.294-.185-.451a2.327,2.327,0,0,0,.535-.018l-.051-.351-.058.008-.008-.058.058-.009-.016-.117a.231.231,0,0,1-.134-.1l-.292.042.008.058-.167.084.042.293-.233.034-.144-.577a1.943,1.943,0,0,0-.51.194l-.025,0c.014-.035.028-.07.042-.1l-.11-.094.188-.22-.056-.047-.188.221-.166-.142-.091.055-.012-.089a.5.5,0,0,0,.106-.059l.1.084c-.01-.113.019-.027-.06-.143a.2.2,0,0,1,.015-.03l.075-.087-.037-.032v0l.06-.008.016.117.058-.008-.043-.293-.108.076-.008-.059-.054.008.139-.162-.056-.047-.141.166-.056-.047.188-.22-.212-.087a1.4,1.4,0,0,0-.08.174l-.032-.218-.058.008-.008-.058.058-.008-.008-.059-.059.008-.009-.058.059-.008-.008-.058-.059.008a.454.454,0,0,1-.092-.225.76.76,0,0,1-.128-.016l.02-.024-.156-.133c.039-.02.087-.033.113-.045l-.009-.058-.062.009.175-.292.056.046.188-.221-.054-.047a.574.574,0,0,1,.133-.268c-.139-.061-.041-.048-.158-.039l-.055-.047c-.122.072-.035.106-.039.158l-.048.055s-.33-.263-.269-.133l.055.047-.046.056-.11-.094.141-.166a.757.757,0,0,0-.268-.133l.047-.055-.056-.047c.158-.043.135-.047.315.077-.017-.234-.152-.272-.341-.385l-.093.111.055.047c-.058.092-.268.006-.308.025-.027.071-.058.142-.087.213-.1.02-.153-.076-.259-.031l.055.046-.047.056-.166-.141.094-.111-.174-.244.141-.166-.166-.141.142-.167.631.157.055.046.048-.055-.111-.094.142-.166c-.135-.194-.093-.3-.246-.5.128-.082.032-.054.149-.063L-39-50.11l-.222-.189.049-.056-.056-.046.2-.119-.111-.094-.048.056c-.039-.065-.08-.131-.119-.2l-.047.056-.055-.048.2-.118-.056-.047.047-.055-.165-.141-.048.055-.056-.047-.039.158-.056-.047-.094.111c.04.065.08.131.119.2l-.094.111-.111-.094-.094.111-.655-.463.046-.055-.111-.094c.049-.023.1-.042.149-.063-.076-.1-.152-.194-.229-.291l.049-.056.11.094.047-.055c-.046-.127.118-.246.227-.379l-.056-.047-.188.22-.174-.243c.2-.128.1-.058.236-.277l-.111-.094-.142.165-.221-.189.046-.054-.111-.094c.229-.015.064-.142.087-.213l.2-.119c-.021-.049-.042-.1-.063-.149l.2-.119-.111-.094c-.065.04-.131.08-.2.118l-.222-.188.141-.166-.055-.046-.189.221-.056-.047.188-.222-.054-.046-.244.174-.277-.236-.288.243L-42-53.475v.05l-.02.023h-.044a.1.1,0,0,0-.009-.014v-.132l-.064.025-.027-.046.094-.111c.009-.061-.244.075-.252.072l-.276-.235-.15.063-.229-.114a.217.217,0,0,0-.014-.051c.249-.317.19-.323.5-.474l-.055-.047.047-.055-.332-.283-.047.056-.056-.047-.008-.1-.094.111a2.775,2.775,0,0,1-.553-.471l.141-.166s-.222-.175-.158-.039l.056.048-.048.056-.161-.137-.024.028c.012-.12.031-.239.037-.331h-.145v-.145l-.436.072a.727.727,0,0,1-.072-.291c-.146-.043-.063.011-.146-.072h.146v-.146l-.218-.073c-.011,0-.027.108-.146.073v-.073l-.218-.073v.073h-.073V-56.6H-45.2v-.146h.29v-.073a.71.71,0,0,0-.29-.073l.072-.073-.072-.218.218-.072v-.291h.073c-.025-.073-.049-.145-.073-.218l.146-.073c-.025-.1-.049-.194-.073-.291a1.393,1.393,0,0,1-.29-.073v.073h-.073V-58.2h-.073v.073h-.073c-.023-.049-.049-.1-.073-.145h-.145v-.073c-.1-.067-.129-.055-.291-.073v-.145h-.145c-.138-.088-.046-.47-.364-.218H-46.5V-59h-.073v-.073h.218v-.073c-.1-.023-.194-.048-.29-.073-.044-.144.009-.063-.073-.145-.032-.1-.03-.166-.073-.073l-.218-.073c-.044.146.01.063-.073.146v.073h-.073v-.073l-.218-.073V-59.8h.145c-.041-.253-.074-.136,0-.363H-47.3v-.073h-.072v.291a1.3,1.3,0,0,0-.363-.146v-.145h-.146v.218h-.072c-.025-.121-.049-.242-.073-.363-.2.112-.062.044-.219-.073.056-.074.089-.072.146-.146h.145v-.073h-.291v-.073h.291c.044-.144-.01-.062.072-.145v.145c.22-.058.251-.135.291-.363h.146c-.025-.1-.049-.194-.073-.291-.421-.008-.453-.146-.436-.581h-.073c-.044.145.009.063-.073.145-.045.146.01.063-.073.146v-.146h-.146l-.073-.218h.145c.115-.133.036-.157,0-.29.039-.03.044-.03.044-.03s0,0,.029-.044h-.218l-.145-.436h-.073c.024-.048.049-.1.073-.145-.146-.043-.063.01-.146-.073h-.073v.218c-.145-.048-.291-.1-.436-.145a1.939,1.939,0,0,0,.073.291h-.073v.145a.255.255,0,0,1-.059,0c-.062-.006-.136-.013-.086.075,0,0,.151.006.072.073l-.508.146v-.073h-.073v.144c-.144-.043-.062.01-.146-.072-.038-.029-.043-.029-.044-.029s0,0-.029-.044a.843.843,0,0,1,.364-.073v-.218l-.219-.072c.053-.184.092-.182.135-.18a.083.083,0,0,0,.084-.039c-.025-.073-.049-.145-.073-.218h.29a1.239,1.239,0,0,0,.073-.509h-.073v-.073l.073-.073-.218-.073v-.144c-.145-.044-.062.009-.145-.073h-.073v-.073h.073V-64.3a1.328,1.328,0,0,1-.655,0v.073H-50.5c-.116-.107.063-.057-.073-.146a.855.855,0,0,0-.073.364c-.279.035-.2.089-.436.144-.044.145.01.063-.073.146s0,.031-.146.073l-.073-.145.073-.073c-.287,0-.454,0-.581-.144-.037-.034-.115.02-.073-.073l.146-.073c.029-.128-.13-.384-.146-.581a2.872,2.872,0,0,0,.654.073V-65.1h-.073v-.073h.073v-.145a.292.292,0,0,1-.146-.145h-.363v.072l-.218.073v.363h-.291l-.073-.727a2.418,2.418,0,0,0-.655.144h-.218v-.072h-.073c.025-.048.049-.1.073-.146-.006-.015-.131-.027-.145-.145.032-.036.045-.033.053-.029s.01.01.019-.044h-.144v-.145c.249-.071.135-.094.291-.219v-.073h.073v.146h.071v-.363c-.048.024-.1.048-.144.073v-.073h-.218V-66.7h-.073c-.025-.072-.049-.145-.073-.217h.073v-.291h-.073v-.073h.073v-.073h-.073v-.073h.073V-67.5h-.073a.561.561,0,0,1-.073-.29c-.158-.035-.206-.046-.291-.146h-.073c-.056-.112.145-.126.218-.146v-.073h-.508v-.072l.218-.073v.073h.073V-68.3h.146a.49.49,0,0,0-.379-.058.872.872,0,0,1-.347-.015v-.073l-.363-.073v-.146l-.436-.073v-.145c-.194.02-.207.086-.436,0v-.073h-.218v-.073h-.145V-69.1c-.117-.015-.091.124-.145.146h-.145c-.025-.1-.049-.194-.073-.29h.145v-.218c.215.081.081-.012.073.218l.218-.146c-.012-.458-.132-.5-.291-.8h-.072v-.145h-.073c-.018-.138.142-.115.145-.146.012-.115-.127-.091-.145-.146.024-.17.048-.339.073-.508h-.073V-71.2l-.364.073v-.146h-.217c.024-.073.046-.145.073-.218h-.146a5.415,5.415,0,0,1,.073-.944h-.073v-.073c-.115-.049-.139.072-.146.073h-.726c-.025-.073-.049-.145-.074-.218h.582v-.073h.073V-72.8l-.219.073v-.145c-.1.025-.193.049-.29.073a.736.736,0,0,1,.073-.291l-.219-.073c-.089.223-.027.291-.29.363v.291c-.038.029-.043.029-.044.029s0,0-.027.044l-.436-.073v.073H-59c-.023-.049-.048-.1-.072-.145h-.146c-.053-.213-.122-.167-.145-.218-.1-.21-.013-.376,0-.581h.654v-.073l.363-.073V-73.6l-.073-.071a.119.119,0,0,0-.145.071l-.363-.071-.073.144-.435-.073v-.145l-.654-.073v-.218h.218v-.436h-.435v-.29H-60.6a.75.75,0,0,1,0-.436.9.9,0,0,0,.363-.073v-.436l-.363.073V-76h-.436v-.146l-.219-.072a.773.773,0,0,1,.073-.291h.29v-.508h-.29c-.054-.21-.079-.241-.291-.291a1.647,1.647,0,0,0,.072.291h-.072c-.088.326-.183.184-.363.363h-.219c.187-.194-.054-.336-.073-.581.215-.082.081.011.073-.218h.291a4.246,4.246,0,0,1,.073-.509c-.191-.159-.218-.362-.509-.436v-.145h-.653c-.037-.359-.161-.336-.436-.436-.025-.073-.049-.145-.073-.218h.073v-.291c-.012-.05-.026-.043-.04-.035s-.026.014-.032-.037c.028-.039.049-.035.063-.03s.017.011.01-.043l-.073-.073h.073v-.072h-.073l-.073-.218h-.146v.145h-.436v.145h-.218c-.061-.081.011-.011-.073-.072v-.291h-.218c-.022.1-.15.338-.146.363.008.051.024.044.038.037s.026-.015.035.036h-.146v.363h.146v.073l.29-.146a.294.294,0,0,0,.146.146l-.073.145H-64.6c-.044.145.01.063-.073.145v.073h-.218v.218c.313.018.246.046.436.146v.145h.145c.044.144-.009.061.073.145v.581h-.073v.073l-.29-.073v.146h-.436c-.044.146.01.062-.073.146v.072a2.606,2.606,0,0,0,.508.145v.291c-.039.028-.044.028-.044.028a.216.216,0,0,1-.029.044h-.144v-.145a1.394,1.394,0,0,0-.509.073v.508h.073v.145h.073c-.025.17-.048.34-.073.508h-.218c.07.131.1.114.146.291a.674.674,0,0,0-.436.291h-.072v.073h.144c-.056.243-.163.279-.218.508h-.144v-.363h-.073v.145h-.073v.073h.073c.008.172-.052.152-.146.218v.073a.52.52,0,0,0-.291-.073q.037.182.073.363h-.073v.218h.073v-.145h.145v-.073c-.077,0-.119-.063-.073-.145h.073v-.073a.522.522,0,0,0,.291.073c.062.082-.011.012.073.073v.218h-.073c-.014.082.151.139.073.29h-.073c-.011.039.046.22-.073.146v-.073h-.073v.145l-.146-.073c-.067.222-.072.068,0,.291l-.436.073v.145c-.157-.034-.206-.046-.29-.145h-.072c-.075.1.025.225-.074.291a.221.221,0,0,1-.145.037.236.236,0,0,0-.218.109h-.073c.023.073.048.145.073.218-.025.073-.049.145-.073.218h.145v.145c-.047-.025-.1-.049-.145-.073v.218h-.073c-.085.207.018.219-.146.363v.072l-.146-.072v.072h-.073v.073h.073c.035.485.263.356.364.727-.145.044-.063-.01-.145.073l-.219.073v.144h.073v.074a.174.174,0,0,0,.184.025c.065-.025.1-.051.179.194h.073c-.059.219-.135.249-.363.289v-.145h-.146a.7.7,0,0,1-.146.291h-.072c.025.073.05.145.072.219h.073c.018.082-.073.144-.073.144l.073.145a.208.208,0,0,0-.073.218c0,.015.109.024.073.146h-.073v.145h-.072a1.343,1.343,0,0,0-.073.872s-.274,0-.145.073h.145c.025.1.049.194.073.29l-.363.073v.146h-.219v.363h-.145v.145a1.943,1.943,0,0,0-.29.073V-66.7h-.291c-.032.282-.118.3-.145.582h-.145c-.052.032.213.137.217.145v.145h.073v.146h.073c.025.073.049.144.073.218h.073l-.073.29h.146v.146l-.146-.073v.218h-.073c-.085.208.018.218-.146.363v.073c-.047-.025-.1-.049-.145-.073v.073h-.072a.743.743,0,0,1,.072.363s-.273,0-.145.073h.145v.654c.245.09.356.006.436.29h.073c-.06.22-.136.251-.365.291v-.146h-.145c-.044.176-.075.161-.145.291h-.073l.073.218h.073c.031.14-.053.1-.073.146.025.048.049.1.073.145H-69.9c.025.121.049.242.073.363H-69.9c.025.217.007.2.145.291v.072a.588.588,0,0,0,.218-.145c.146-.043.063.01.146-.073h-.146v-.218c.124,0,.51-.072.51-.072v.072a.614.614,0,0,0,.362.146c-.043.145.01.062-.072.145v.073h-.218v.218c.145.043.063-.011.145.072h.073v.218h-.29v.073H-69.1v-.073h-.218v.073h-.073c.024.073.049.145.073.218h-.073v.145h-.073c-.023.073-.048.146-.073.218h-.145v-.363h-.073v.145h-.072v.073h.072c.009.172-.051.153-.145.218v.073a.515.515,0,0,0-.29-.073c.024.121.049.243.073.363h-.073v.218h.073V-59.8h.145v-.073c-.077,0-.12-.063-.072-.145h.072v-.073a.524.524,0,0,0,.291.073v.073h.072v.218h-.072c-.014.082.151.14.072.291h-.072c-.011.039.046.218-.073.146-.009-.006.006-.14-.072-.073v.145l-.146-.073c-.068.221-.071.067,0,.291l-.436.073c.082.081,0,.031.146.073v.146h-.218v.145l.508-.073c-.025.217-.006.2-.145.291v.073h.218c.025.048.049.1.073.145l.363.073a1.1,1.1,0,0,1,0,.582l.437.144c-.025.145-.049.291-.073.436l.218.073a.761.761,0,0,1-.144.291H-69.1c.022.094.145.145.145.145v.364h.29s.011.282.074.144v-.072h.073a.555.555,0,0,0,.145.218v.363h-.073v.073l-.29-.073v.073h-.218a.537.537,0,0,0,.29.218.666.666,0,0,1-.29.436v.073c-.114.1-.06-.134-.072-.145H-69.1v.145h-.218v.145h.218v.073h.073v.218l-.291.073v.146c-.073-.025-.146-.049-.218-.073v-.291a.668.668,0,0,0-.363.073v.073l-.218-.073v.073h-.145l.218.29h-.073v.364h.073v-.073l.289.146v-.073h.073v.073h.072a.19.19,0,0,1,.073-.146l.073.146h.146c-.126.073.049.559.073.727h.218l.072.218.364.072v.291h.073l-.073.218.144.073v.144h.145v.146a2.128,2.128,0,0,1,.51-.073l.073.436h-.073v.072h.073v.146h-.291v-.146H-68.3c.025.122.049.242.073.363l.145.073c-.013.1-.065.121-.073.29.073.025.146.049.219.073v-.073h.073v.073h.073v-.073h.073v.291h.073c.023-.121.048-.242.073-.363h-.145v-.291h-.218v-.073h.073c.117-.1.446.034.8.073v.146h.218v.218l-.289.073v-.073h-.074v.291h-.073v-.291a.761.761,0,0,0-.145.581h-.146c.053.21.078.241.291.291a2.189,2.189,0,0,1-.073.29l.073.072-.291.146c-.006.475,0,.905,0,1.526h.363c.1.023-.03.086.074.073v-.073h.435v.146h.218v.291h-.145c.083.122.044.1.218.145,0,.135.073.581.073.581l-.145.073v.291h.145c-.023.121-.047.243-.073.363h-.145v.074h.073c.025.073.049.145.073.218.454-.071.151-.091.436.144a.677.677,0,0,1,.146-.144c.023-.218.049-.436.072-.655h.146c.043-.145-.011-.062.071-.145.156-.132.17,0,.437.073v.145h.144c-.023.073-.047.146-.072.218H-65.1l.073.073c-.022.191-.053.123-.146.219l-.073.145h-.291v.073h-.071v.218h-.146l.146.218h-.074v.145s-.275,0-.144.073h.144l.074.219c-.03.006-.13-.015-.074.071h.145v-.217h.073v.363h-.218v.218h.145l-.071.144h.144c.044.145-.01.063.073.145v-.145l.291.074c.043-.146-.011-.063.073-.146a.69.69,0,0,1,.072.29h-.218c.1.118.208.15.29.291h.218c.073.308.2.337.291.654h.072c0,.051-.013.044-.03.036s-.036-.014-.042.037v.727a2.765,2.765,0,0,1,.872.436v.144h.146v.146l.145.073c.125.3-.17.66-.218.872h.146c.024.1.048.193.073.291a.19.19,0,0,0-.073.218h.073c.024.122.048.242.073.364h.218v.144h.145c-.049.282-.044.337-.073.581.2-.05.223-.12.363-.218v-.073c.158-.078.287.071.363.073v-.073c.118.013.344.01.291.145-.009.022-.032.022-.052.022s-.049,0-.022.051.177.039.146.146h-.072v.073l.218-.073c.024.073.048.145.071.218h.146s.011.282.074.145v-.073h.072V-38h.073a.294.294,0,0,1-.145.145v.073h.218v.073h-.146c.071.158.018.117,0,.363h-.218v-.073l-.363.073a.764.764,0,0,0-.074-.291c.038-.029.043-.029.044-.029a.342.342,0,0,1,.03-.044h-.219v.218a.7.7,0,0,1-.291.072c.082.082,0,.031.145.073v.218h-.217c.023.073.048.145.072.218l-.072.073c.037.028.042.028.043.028s0,0,.029.044l.145.073v-.144c.177.044.16.076.291.144v-.144h.291v-.073l.217-.073v.146h.074v-.146h.145c.025.218.048.436.073.654l.581.073c.044.144-.01.063.073.145l.073.218h.291c.025.218.006.2.145.291.044.144-.01.062.073.145V-35.6c.146.043.062-.011.146.073-.038.029-.043.029-.045.029s0,0-.027.044c.037.028.043.028.044.028s0,0,.029.045h-.291v.073h.291c-.007.225-.035.538.072.654.044.144-.009.062.073.145v-.145h.146v.29h.073v-.29h.073a1.283,1.283,0,0,1,.146.363h-.146v.219c.038.028.044.028.044.028s0,0,.029.044a2.341,2.341,0,0,0,.291-.072l.073.072v-.145H-59c-.023-.073-.048-.146-.072-.218l.145-.073c-.039-.077-.035-.069-.054-.061s-.037.011-.091-.012v-.073h.435v.218a.7.7,0,0,1,.291-.073v.073h.074v.291h.218V-34c.114.089-.049.008,0,.145h.073q-.037.256-.073.509c.145-.044.062.01.145-.072h.291v.072c-.042.029-.115-.021-.073.073h.073v.073l-.218.072c.032.1.029.166.073.074l.218.072.073.291c.144.043.062-.01.144.073h.074v-.218l.218.073c.043.145-.011.063.073.145v-.145h.29s-.007.346-.073.218c0,0-.042-.125-.146-.073-.008,0-.072.111-.144.145a1.81,1.81,0,0,0,.073.291h-.073v.072h.073v.073h-.073v.218h.218s.009.282.072.145c.1-.018-.03-.068.073-.073v.146h.146v.144h.073v-.218h.072v.218c.049.024.1.049.145.073.059.055.03.141.146.146l.145-.073v.218l.582-.072v-.146h.071v.436h-.217v.29l.291.073.072.144c.1.04.03-.034.074-.073H-55v.073l.217-.073v-.145h.074v.073l.218.072c-.082.082,0,.031-.146.073a.286.286,0,0,0,.146.146c-.044.145.009.062-.073.146v.073l-.145-.073v.073h-.146l.146.29c-.011.051-.025.044-.039.037s-.026-.015-.035.036a.4.4,0,0,1,.061,0c.087.006.22.012.158-.075-.029-.039-.048-.034-.059-.03s-.017.011-.014-.043l.218-.073v.219h.073v.073h.073v-.146a.171.171,0,0,0,.144-.073c.1-.02.181.2.218.218l.146-.073s.006.08.145.073l.073-.073.073.145.291-.073c.047.218.1.435.144.655h.146v.217a.169.169,0,0,1-.092.016c-.015,0-.008,0-.054.056a.152.152,0,0,0,.064.014c.013,0,0,0,.01.058h-.074l.074.146c-.145-.044-.063.01-.145-.073h-.073v.218h.218v.146l-.218-.072v.072h-.073c.059.094.047.09.146.145.075-.07-.031-.07.071-.073.137.146-.082.149.218.218v.219l.146-.073v.291h.073v.073c-.013.05-.025.042-.037.035s-.025-.013-.036.036c.473,0,.462.133.727.291v.437h.073l-.073.072a.4.4,0,0,0,.146.218v.073h.217v.144h.146c.025.048.049.1.073.147a.886.886,0,0,1,.363-.074,2.112,2.112,0,0,1,.073.509h.218v.145h.218v.073h.072v.291l.363-.073v-.218h.073c.025.073.049.146.073.218h.146v.291h.073v-.291h.218c.024-.073.049-.146.073-.218l.29-.073v.363h-.436c.082.082,0,.031.146.073v.145h.218v.291h.073v-.218h.073v.29l.218-.072c-.1-.453-.215-.291-.218-.873l.509-.073c-.051.081-.079.071-.1.061s-.029-.012-.044.012c-.052.082.139.124.146.145v.291h.218c.039.134.26.4.219.508h-.073v.072h.218l.072.436h-.072v.29h.072a.574.574,0,0,1,.073.291c.144-.044.062.01.145-.072h.073c.046-.134-.042-.1-.073-.146v-.073s.422-.013.291-.071h-.073v-.074h.145v.218a.743.743,0,0,0,.291-.073v.073h.073c-.094.135-.073.123-.291.146.165.167.291.109.508.072v-.144h-.073c-.015-.108.2-.179.218-.218-.025-.074-.049-.147-.073-.219.062-.08.166-.042.217-.145H-46.5v-.073h.218v.144l.29.073v.219h.218v.218l-.581.29h-.073v.072h.146v.219c.228.061.263.168.508.218-.044.146.01.063-.073.146v.073h.291v.073h.072c-.024.073-.049.144-.072.218h.144v-.073c.073.025.146.05.219.073v-.073h.072l-.072.219h.072v.073h.218v-.073h.073l-.073-.146h.073v-.145l-.218-.073v-.146h.141l-.006.091c.01.008.02.013.031.02l.206-.153c.134.141.111.138.258.13.108.08.026.049.129.063l-.077-.1c.125-.046.039-.04.141-.026-.012.041-.015.044-.017.044s0,0,0,.046c.042,0,.046,0,.046,0s0,0,.046.017l-.208.154.008.009H-44.4c.082.082,0,.031.146.073v-.073h-.011l.151-.113c.107.152.241.366.37.417,0,.02,0,.04,0,.06h.073v-.016c.042.035,0,.02.088.032l-.077-.1.1-.077.155.207h0c.006.026.013.057.02.1h.146v-.1l.092.122a.132.132,0,0,0,.046,0s0,0,.044.016A1.026,1.026,0,0,0-42.9-21.8h.1c-.165.159.043.149.072.218-.024.073-.049.145-.072.218l.145.073c-.025.072-.049.145-.073.218h.146c.024-.073.048-.146.073-.218h.291v.218h.073v-.291h.073v.291H-42c.024-.1.049-.193.072-.291h.364l.059-.356.18-.061.124.1v.026c.006.011.016.006.027,0l.056.045c.127-.045.039-.04.142-.025l.051-.039-.115-.154.122-.041h.1c.061.049.008.028.1.042l-.031-.042h.056l.073-.146c.023,0,.045-.011.068-.016.045.07.108.179.028.139,0,0-.1-.066-.141.027a.515.515,0,0,1-.027.179,1.66,1.66,0,0,0,.206.168l-.052.039.039.051.051-.039.039.053-.052.038.117.155.089-.066h.109c.044.047.1.1.086.015a.138.138,0,0,0,.011-.015h.057l.021.029.039-.029h.037v-.029l.027-.02.077.1.052-.038-.015-.02,0,0v-.106l.061.083.142-.025c.072.007.1.084.181.026l.065-.129.116.154.156-.15h0v.218s.282-.01.145-.072h-.073v-.073h.193l.154.207.194-.082.5.427.1-.122-.111-.1.115-.049.231.115c.019.042.006.044-.008.046s-.026.006-.006.045c.006-.006.024-.016.045-.03.064-.042.163-.108.072-.137-.042-.013-.053,0-.058.01s-.006.017-.032-.023c.037-.056.077-.112.116-.168l.116.156.051-.039.038.051.052-.038-.077-.1a.154.154,0,0,0,.064-.128c.063-.069.237.046.272.039l.065-.131s.046.054.142-.024l.013-.091.13.065c.055-.07.111-.138.168-.207l.451.389.1-.078.115.155a.162.162,0,0,1-.056.061c-.011.007-.007,0-.007.069a.137.137,0,0,0,.051-.025c.008-.008,0,0,.039.037l-.052.039.13.065c-.127.046-.039.04-.142.025l-.052.038.116.156.155-.115.079.1c-.065.021-.13.042-.2.065l.039.051-.052.039a.238.238,0,0,0,.181.026c.018-.09-.058-.034.013-.091.176.032.022.151.272.039l.115.156.065-.13.155.207.052-.039.039.051c.018.043,0,.044-.007.046s-.025,0-.006.044c.337-.249.4-.151.672-.179l.231.31.052-.039-.013.09a.359.359,0,0,0,.22.079l.038.051.155-.115.077.1.1-.077.128.064a.8.8,0,0,1,.221-.245,1.927,1.927,0,0,1,.322.322l.155-.115.077.1.155-.115.039.051.052-.039.154.208c.073-.082.146-.164.22-.245l-.115-.154.051-.039.168.116.1-.077.155.206.051-.038-.154-.207.155-.116c-.021-.064-.042-.13-.064-.194.056-.069.113-.137.168-.206l.193.258-.31.232c.1.015.015.024.144-.025l.076.1.155-.115.156.208.051-.039-.117-.155.053-.039.154.206.117-.167c-.312-.269-.308-.093-.62-.5.108-.107.215-.215.323-.322.006.085-.018.092-.039.1s-.027.006-.026.031c.006.087.165.015.181.027l.155.207.156-.115c.1.075.4.145.425.244l-.052.039.038.052.156-.117.284.272-.051.039.154.206.052-.038c.1.045.1.058.206.168.079-.108.049-.027.065-.129l.051-.038c-.038-.12-.084-.051-.128-.065l-.039-.052s.293-.234.169-.206l-.051.038-.039-.051.1-.077.116.154a.663.663,0,0,0,.168-.206l.039.052.052-.039c.006.146.014.126-.13.258.206.032.266-.077.4-.219l-.077-.1-.051.038c-.068-.069.046-.232.039-.27l-.168-.118c0-.089.1-.118.078-.218l-.051.038-.039-.052.155-.115.077.1.245-.1.116.155.156-.116.115.155-.26.516-.051.038.039.052.1-.077.116.155c.2-.078.276-.021.478-.115.045.126.04.039.025.142l.039.051.207-.155.038.052.051-.038c.022.065.043.13.065.193l.1-.077-.039-.051.194-.065-.039-.051.051-.039.064.194.052-.039.038.052.155-.115-.039-.052.052-.039-.129-.065.052-.039-.078-.1-.194.065-.077-.1.1-.077-.078-.1.531-.476.038.051.1-.077c.009.047.016.1.025.142l.3-.142.039.052-.1.077.038.051c.119-.014.19.152.284.272l.051-.039-.154-.206c.082-.034.164-.07.246-.1.07.2.03.1.193.258l.1-.077-.116-.156.207-.155.039.051.1-.077c-.033.2.109.083.167.117l.065.193c.047-.007.094-.016.142-.025.021.064.042.13.064.193l.1-.076c-.022-.065-.042-.13-.064-.194l.207-.155.115.155.052-.038-.155-.206.052-.04.154.208.052-.039-.1-.246.256-.191a32.986,32.986,0,0,1-5.061-.211,19.9,19.9,0,0,1-6.052-2.046l-.384-.2,0-.446.045-8.322,0-.929.82.381q1.808.84,3.527,1.485t3.3,1.083h0l.008,0h0q.467.129.874.229c.249.061.531.125.841.191a19.155,19.155,0,0,0,3.451.44m-40.825-11.5h-.364v.073h-.073v-.436l.218-.072c.07.109.142.123.218.218h.073c-.025.073-.049.146-.073.218m12.279,15.258v.146h-.218c.041-.427.1-.329-.074-.581h.146v-.145l.218.145a1.171,1.171,0,0,0,.073.436Zm12.8-19.846c-.008.022-.016.044-.021.063l-.029-.056ZM-44.906-22.6h0l0,.077Zm1.447.562.032.007.044.023c-.018.06-.029.094-.034.118L-43.5-22Zm.225.234v-.07h.065l.013.011Zm.2-.07h.087v.013l-.033.025c-.018-.013-.035-.025-.053-.037m4.3.49v-.131l.081.069Zm1.006.213-.07.053-.082-.07c.06-.139.049-.042.039-.158l-.094.11-.089-.125.021,0-.011-.191.017.022c.012,0,.024-.008.037-.012h0l.156-.052c-.015.1.017.023-.065.13a.251.251,0,0,0,.182.026c.045.127.04.04.025.143l.037.051-.14.026Zm4.583.524-.156.115c-.2-.325-.1-.289-.361-.374l.1-.078-.077-.1.233-.013a1,1,0,0,0,.284.272l-.1.077Z" transform="translate(70.48 80.068)" fill="#c6c335"/>
      </g>
    </g>
  </g>
</svg>
